<?xml version="1.0" standalone="no"?>
<!DOCTYPE svg PUBLIC "-//W3C//DTD SVG 20010904//EN"
 "http://www.w3.org/TR/2001/REC-SVG-20010904/DTD/svg10.dtd">
<svg version="1.0" xmlns="http://www.w3.org/2000/svg"
 width="700.000000pt" height="700.000000pt" viewBox="0 0 700.000000 700.000000"
 preserveAspectRatio="xMidYMid meet">
<metadata>
Created by potrace 1.14, written by Peter Selinger 2001-2017
</metadata>
<g transform="translate(0.000000,700.000000) scale(0.100000,-0.100000)"
fill="#000000" stroke="none">
<path d="M3505 6790 c-6 -9 -4 -11 6 -5 12 7 12 5 1 -6 -11 -12 -14 -12 -22 1
-7 12 -12 12 -21 3 -8 -8 -18 -9 -30 -3 -18 10 -35 -2 -25 -18 6 -11 -25 -9
-43 3 -9 5 -12 4 -8 -2 4 -6 -5 -13 -21 -16 -15 -3 -28 -1 -30 4 -2 5 -10 3
-17 -5 -9 -8 -29 -12 -50 -10 -26 2 -34 0 -28 -9 4 -7 -5 -4 -21 6 l-28 19 7
-23 c7 -22 7 -22 -9 -6 -19 18 -27 21 -25 10 3 -20 -2 -26 -11 -13 -9 13 -10
13 -10 0 0 -13 -1 -13 -10 0 -8 13 -11 13 -22 1 -11 -11 -11 -13 1 -6 10 6 12
4 7 -4 -6 -9 -13 -8 -27 5 -19 17 -20 17 -13 -1 5 -13 4 -16 -4 -11 -7 4 -12
1 -12 -9 0 -15 -1 -15 -16 -1 -19 20 -25 20 -18 2 3 -8 0 -17 -7 -22 -7 -4
-10 -3 -5 4 4 6 -1 10 -13 9 -11 0 -17 -5 -14 -11 4 -5 -1 -7 -10 -3 -10 3
-17 2 -17 -4 0 -6 -4 -8 -9 -4 -5 3 -13 0 -17 -6 -4 -7 -3 -9 4 -5 6 3 13 2
17 -3 6 -11 -27 -7 -46 5 -7 4 -7 -1 1 -16 11 -20 10 -21 -10 -10 -20 11 -21
10 -11 -9 9 -17 9 -19 -3 -15 -8 3 -17 0 -21 -5 -3 -6 -12 -8 -18 -4 -7 4 -6
0 2 -10 12 -15 11 -17 -3 -17 -9 0 -16 -7 -16 -15 0 -8 -7 -15 -15 -15 -9 0
-12 -6 -8 -15 3 -9 2 -15 -3 -14 -5 1 -20 1 -34 0 -21 -1 -22 -3 -10 -12 12
-9 11 -10 -7 -6 -13 3 -24 -1 -27 -10 -4 -8 -11 -11 -18 -7 -9 5 -8 2 1 -9 12
-15 12 -17 -4 -11 -13 5 -16 4 -10 -5 6 -10 3 -11 -14 -2 -17 9 -20 9 -15 -3
3 -8 -3 -19 -15 -26 -12 -6 -21 -17 -21 -25 0 -8 -7 -15 -16 -15 -9 0 -12 -5
-8 -12 5 -7 2 -9 -8 -6 -11 5 -14 0 -12 -18 2 -21 -6 -29 -28 -25 -4 0 -5 -9
-3 -20 4 -18 2 -19 -13 -8 -9 7 -14 9 -10 5 4 -5 2 -16 -4 -24 -7 -7 -13 -23
-15 -35 -2 -11 -8 -26 -14 -33 -6 -7 -8 -18 -4 -24 4 -6 1 -9 -7 -8 -7 2 -12
-5 -12 -14 1 -10 -5 -18 -15 -19 -11 0 -12 -2 -3 -6 10 -4 10 -8 1 -19 -6 -8
-8 -14 -3 -14 4 0 -1 -7 -12 -16 -10 -8 -12 -12 -4 -8 10 5 8 -1 -5 -16 -11
-13 -15 -21 -10 -17 6 3 11 -3 11 -13 0 -14 -4 -16 -13 -9 -9 8 -12 5 -11 -13
1 -13 5 -28 10 -35 6 -7 1 -17 -12 -26 -16 -11 -18 -16 -8 -20 10 -4 10 -6 -1
-6 -10 -1 -11 -4 -2 -15 9 -11 9 -16 0 -22 -8 -5 -9 -3 -4 6 5 9 4 11 -4 6 -6
-4 -8 -13 -4 -19 11 -18 12 -38 2 -31 -5 3 -6 11 -3 17 4 7 3 9 -1 4 -5 -4 -9
-16 -10 -27 -1 -16 3 -19 19 -15 17 5 16 3 -4 -9 -14 -9 -20 -15 -15 -16 6 0
11 -15 11 -34 0 -19 -4 -32 -8 -30 -5 3 -6 -22 -4 -55 3 -42 1 -61 -6 -61 -7
0 -3 -7 8 -16 10 -8 14 -13 9 -10 -15 7 -13 -56 2 -72 9 -10 10 -19 3 -33 -9
-15 -7 -19 5 -19 15 0 15 -1 1 -16 -14 -14 -14 -34 0 -34 3 0 3 4 -1 9 -3 5
-1 12 4 15 11 7 9 -13 -2 -31 -5 -8 -3 -13 3 -13 6 0 8 -5 3 -12 -11 -19 -13
-39 -2 -32 5 3 6 10 3 16 -4 6 -2 8 4 5 5 -4 8 -16 5 -27 -3 -13 0 -20 8 -20
11 0 11 -2 -1 -10 -12 -8 -12 -10 5 -10 17 0 17 -2 5 -10 -14 -9 -13 -11 9
-14 5 0 13 -5 18 -10 5 -5 2 -6 -6 -1 -11 6 -13 3 -8 -16 4 -13 7 -30 7 -37 0
-7 6 -10 13 -7 6 4 3 -1 -8 -11 -13 -11 -15 -15 -4 -11 19 6 44 -29 27 -39 -6
-4 -8 -3 -4 4 3 6 2 13 -3 16 -12 8 -8 -13 9 -44 7 -14 13 -27 13 -30 -1 -3 1
-7 4 -10 4 -3 3 1 -2 9 -5 9 -4 12 3 7 6 -4 9 -12 6 -19 -2 -7 6 -24 18 -37
17 -18 18 -22 5 -17 -23 9 -21 -1 6 -25 12 -11 16 -16 9 -13 -11 6 -11 3 0
-16 7 -13 17 -27 22 -30 4 -4 3 -10 -3 -13 -6 -4 -11 -13 -11 -19 0 -9 2 -9 8
-1 5 7 14 5 27 -9 19 -19 19 -20 1 -13 -19 7 -19 6 -2 -13 10 -11 15 -24 12
-30 -4 -6 4 -17 18 -26 13 -9 27 -24 30 -33 5 -13 3 -13 -9 2 -8 11 -17 17
-20 14 -3 -3 8 -19 25 -36 17 -18 26 -32 20 -32 -18 0 -11 -22 9 -27 13 -3 18
-10 14 -21 -4 -10 -2 -13 5 -8 8 5 10 1 5 -10 -5 -13 -2 -16 9 -11 12 4 14 1
10 -15 -3 -14 -1 -19 6 -14 8 5 10 2 6 -8 -3 -9 -1 -16 4 -16 6 0 9 -9 7 -20
-2 -12 2 -20 10 -20 7 0 17 -9 20 -20 4 -11 12 -18 18 -14 7 3 3 -2 -8 -12
-20 -16 -20 -16 1 -12 13 3 21 0 21 -8 0 -7 -5 -11 -11 -8 -6 3 -1 -3 12 -15
13 -11 18 -22 12 -26 -5 -3 -10 -12 -9 -18 0 -9 2 -9 6 1 2 6 9 12 14 12 6 0
8 -4 4 -9 -3 -5 2 -17 11 -25 11 -12 12 -16 2 -16 -10 0 -10 -3 2 -9 8 -6 19
-7 25 -3 5 3 3 -3 -5 -13 -9 -11 -10 -16 -2 -11 6 4 12 3 12 -1 0 -5 -6 -15
-12 -23 -7 -8 -4 -7 7 2 19 16 20 15 21 -8 1 -14 -2 -21 -9 -17 -6 3 -7 1 -3
-5 4 -6 14 -8 24 -5 15 6 16 5 2 -12 -9 -11 -10 -16 -2 -11 7 4 12 2 12 -4 0
-6 5 -8 11 -4 8 4 8 0 0 -15 -10 -18 -9 -20 5 -14 12 4 15 3 10 -5 -4 -7 -2
-12 6 -12 9 0 9 -3 -2 -10 -13 -8 -12 -10 4 -10 12 0 16 -5 12 -16 -3 -8 -2
-12 4 -9 6 3 10 -3 10 -14 0 -10 4 -21 10 -23 5 -1 11 -15 12 -30 1 -15 5 -26
8 -26 21 2 30 -5 30 -22 0 -11 5 -20 11 -20 8 0 7 -5 -1 -16 -8 -8 -9 -14 -4
-13 20 3 32 -2 38 -17 5 -13 4 -14 -7 -6 -10 9 -14 8 -14 -3 0 -7 3 -14 6 -13
22 2 31 -5 31 -23 0 -11 4 -18 8 -15 5 3 9 -1 9 -9 0 -8 -5 -11 -11 -8 -6 4
-2 -4 8 -16 15 -16 16 -20 5 -16 -9 3 -22 -2 -30 -12 -12 -16 -12 -17 2 -6 13
11 15 9 14 -9 -1 -11 -10 -27 -21 -35 -10 -8 -18 -19 -16 -25 1 -6 -5 -17 -15
-25 -17 -13 -16 -14 7 -7 l25 6 -24 -21 c-15 -13 -25 -34 -26 -51 -1 -16 -5
-33 -10 -37 -4 -5 -6 -1 -3 8 4 9 1 16 -6 16 -6 0 -12 -9 -12 -19 0 -10 4 -18
9 -18 4 0 5 -5 2 -10 -4 -6 -10 -8 -15 -5 -5 3 -11 1 -14 -4 -4 -5 -1 -13 5
-17 8 -5 9 -3 4 7 -5 8 -4 10 0 6 17 -15 14 -36 -3 -29 -15 5 -15 3 -4 -10 9
-12 10 -18 2 -23 -6 -4 -9 -13 -6 -21 3 -8 0 -11 -10 -7 -13 5 -13 8 2 24 9
11 12 19 7 19 -11 0 -27 -29 -24 -43 0 -4 -4 -18 -9 -30 -11 -21 -11 -21 4 -3
9 11 16 15 16 9 0 -7 -5 -15 -10 -18 -6 -4 -8 -11 -5 -16 3 -5 0 -6 -8 -3 -9
3 -16 -3 -20 -16 -4 -17 -3 -19 8 -10 11 9 12 7 8 -10 -3 -12 -11 -24 -18 -26
-8 -3 -10 -14 -7 -26 4 -16 1 -20 -9 -16 -10 4 -15 -1 -15 -12 0 -10 4 -17 7
-14 4 2 11 -1 15 -7 5 -8 3 -9 -6 -4 -10 6 -12 4 -6 -10 6 -16 4 -16 -10 -4
-16 13 -16 12 -6 -7 10 -19 8 -24 -10 -36 -17 -11 -19 -16 -8 -23 9 -6 11 -4
5 5 -5 9 -4 11 4 6 9 -6 9 -11 1 -21 -7 -8 -9 -20 -5 -27 4 -7 -1 -4 -9 6 -19
23 -19 22 -7 -21 8 -26 7 -31 -5 -26 -16 6 -16 -17 0 -28 5 -4 -1 -10 -13 -14
-12 -3 -19 -11 -15 -16 3 -5 10 -7 15 -4 5 4 9 1 9 -4 0 -6 -8 -11 -17 -11
-15 0 -16 -2 -3 -10 13 -9 7 -14 -12 -11 -4 0 -5 -5 -3 -12 2 -6 6 -31 8 -54
3 -32 1 -40 -10 -36 -11 4 -11 8 -1 22 12 14 11 15 -5 2 -11 -9 -14 -18 -8
-24 5 -5 7 -16 4 -25 -4 -8 -2 -13 3 -9 5 3 10 -3 10 -13 0 -14 -3 -16 -13 -8
-8 6 -16 8 -20 4 -3 -3 -1 -6 6 -6 7 0 10 -4 7 -9 -4 -5 0 -12 6 -14 7 -3 8
-6 2 -6 -11 -1 -11 -52 0 -70 5 -7 1 -8 -11 -4 -16 6 -17 5 -3 -12 9 -11 10
-16 3 -11 -7 4 -13 3 -13 -3 0 -5 6 -12 13 -14 8 -4 9 -8 2 -14 -12 -9 -12
-15 0 -63 5 -19 7 -43 6 -54 -2 -10 3 -23 11 -27 10 -7 8 -9 -7 -9 -19 -1 -19
-2 1 -10 18 -7 21 -15 17 -45 -3 -28 -1 -35 9 -29 9 5 8 2 -2 -10 -12 -16 -12
-19 3 -28 10 -5 15 -13 12 -19 -4 -5 -1 -9 4 -9 6 0 10 -3 10 -8 -4 -24 3 -34
19 -28 14 5 14 4 -2 -9 -18 -14 -19 -15 -2 -15 12 0 16 -5 13 -14 -3 -8 1 -20
9 -27 12 -10 13 -9 9 7 -5 13 -2 12 7 -4 8 -12 18 -19 23 -15 5 4 3 0 -4 -10
-12 -14 -11 -17 3 -17 9 0 16 -4 16 -10 0 -5 7 -10 15 -10 8 0 15 -5 15 -11 0
-5 6 -7 13 -3 7 5 6 1 -2 -10 -13 -16 -13 -17 5 -14 12 2 18 -2 16 -11 -3 -12
-1 -12 14 0 12 9 15 9 10 1 -4 -7 -1 -12 8 -12 9 0 16 -5 16 -11 0 -5 5 -7 12
-3 6 4 17 -1 24 -11 9 -12 21 -16 39 -12 18 3 28 0 32 -10 5 -12 7 -12 14 -1
7 10 9 10 9 1 0 -7 5 -13 11 -13 5 0 7 5 3 11 -3 6 4 4 18 -5 22 -14 26 -14
48 1 13 9 20 11 16 5 -3 -6 -1 -14 5 -18 7 -4 9 -3 6 2 -3 6 -2 16 4 24 7 12
9 11 9 -5 0 -17 2 -17 10 -5 8 12 10 12 11 -5 l0 -20 9 20 c5 11 9 14 9 8 1
-7 12 -13 26 -13 14 0 25 -4 25 -10 0 -12 26 -14 33 -2 2 4 2 2 1 -5 -3 -13
21 -25 30 -15 11 11 36 11 30 0 -4 -6 -1 -8 7 -6 8 3 23 1 34 -5 18 -9 19 -9
6 7 -12 14 -12 16 3 10 9 -3 16 -10 16 -15 0 -5 4 -9 10 -9 5 0 7 8 4 18 -4
10 -2 13 3 7 14 -17 47 -40 40 -28 -5 8 2 11 22 11 17 -1 37 5 46 12 9 7 15 9
13 4 -2 -5 2 -9 7 -9 5 0 9 4 7 8 -1 5 2 6 8 2 6 -3 7 -11 4 -17 -4 -6 0 -6
13 1 11 6 23 7 27 4 10 -10 37 -12 31 -3 -3 5 -1 11 5 15 5 3 10 -2 10 -12 0
-15 2 -16 10 -3 5 8 10 11 10 5 0 -5 5 -3 10 5 5 8 10 10 10 5 0 -6 9 -11 19
-11 11 0 17 4 15 8 -3 4 8 8 25 8 16 0 33 5 37 12 5 7 3 8 -6 3 -9 -5 -11 -4
-6 4 6 9 11 9 24 -1 14 -11 15 -10 9 6 -7 17 -6 17 10 5 14 -12 16 -12 8 0 -6
11 -3 13 13 9 16 -5 20 -2 17 14 -3 16 -1 17 9 9 10 -9 15 -8 20 4 3 10 11 13
18 9 9 -5 8 -2 -1 9 -12 15 -12 17 3 11 11 -4 16 -1 16 12 1 18 2 18 17 -1 13
-16 15 -17 10 -2 -8 20 1 47 15 47 6 0 4 -8 -3 -18 -13 -15 -12 -16 4 -3 9 7
17 20 17 28 0 8 8 22 18 31 10 10 13 15 7 12 -6 -3 -3 3 7 12 11 9 20 21 21
25 1 4 6 7 11 5 5 -2 3 4 -4 13 -11 13 -10 15 6 9 10 -4 16 -4 12 1 -4 4 -2
15 5 23 8 10 8 13 1 9 -7 -4 -15 0 -18 9 -5 12 -2 15 10 10 12 -4 15 -2 10 9
-3 8 -1 15 5 15 6 0 7 5 4 10 -3 6 -2 10 4 10 6 0 8 6 5 14 -3 8 -1 17 5 21 6
3 11 11 11 17 0 7 -5 6 -14 -1 -12 -10 -13 -8 -9 8 3 12 9 18 14 15 15 -9 10
8 -8 29 -17 19 -17 20 4 8 20 -10 22 -9 16 5 -5 13 -3 15 7 9 9 -5 11 -4 6 4
-4 6 -12 9 -17 6 -5 -4 -9 1 -9 10 0 9 5 13 11 9 7 -4 7 1 -1 15 -9 18 -9 26
2 38 7 9 12 17 11 17 -1 1 -6 13 -12 29 -7 18 -7 27 0 27 6 0 7 5 4 10 -4 6
-12 7 -18 4 -9 -5 -9 -4 0 6 6 7 9 20 5 29 -5 14 -4 14 13 1 17 -14 17 -14 4
8 -8 12 -21 22 -29 23 -10 0 -8 3 5 9 11 5 15 9 9 9 -7 1 -14 8 -17 15 -4 11
-1 13 11 9 15 -6 15 -5 3 10 -7 9 -10 24 -7 33 6 15 4 15 -11 3 -10 -7 -15 -9
-11 -5 4 5 2 16 -5 24 -10 13 -9 15 6 9 9 -3 17 -2 17 2 0 5 -7 12 -17 15 -14
6 -14 8 3 21 19 13 19 13 0 12 -10 -1 -21 4 -24 12 -3 8 0 11 7 7 6 -4 11 -2
11 3 0 6 -6 11 -14 11 -18 0 -29 27 -14 36 6 4 8 3 4 -4 -3 -6 -2 -13 3 -16 5
-4 8 2 6 11 -1 10 -7 17 -13 16 -6 -1 -13 4 -16 13 -3 8 -1 12 4 9 6 -3 7 1 4
9 -3 9 -10 14 -14 11 -4 -3 -10 4 -13 16 -5 18 -3 18 11 7 15 -12 16 -11 3 5
-8 10 -20 16 -28 13 -11 -4 -11 -1 -3 14 8 15 8 20 -1 20 -6 0 -9 6 -6 14 3 8
1 17 -6 20 -9 3 -8 8 3 16 13 10 13 11 0 9 -31 -3 -38 1 -33 21 3 12 0 20 -7
20 -7 0 -9 8 -5 20 5 14 2 20 -9 20 -9 0 -16 5 -16 11 0 5 -4 8 -9 5 -5 -3 -9
0 -8 7 1 40 -4 58 -15 51 -8 -5 -9 -2 -5 9 4 11 1 17 -8 17 -8 0 -15 5 -15 11
0 5 4 8 8 5 4 -2 8 3 8 13 0 12 -6 17 -17 14 -13 -4 -16 0 -13 15 3 10 -2 26
-10 35 -9 8 -16 21 -16 27 0 6 -4 9 -9 6 -5 -3 -12 1 -15 10 -3 8 -2 13 2 10
4 -2 8 4 8 14 0 15 -3 17 -15 7 -12 -10 -14 -8 -9 10 4 13 1 26 -4 30 -7 3 -8
1 -4 -5 4 -8 2 -10 -7 -6 -9 3 -13 13 -10 25 3 10 0 19 -6 19 -6 0 -11 7 -11
15 0 8 -6 15 -12 15 -10 0 -10 2 0 9 11 6 10 10 -3 15 -9 3 -15 13 -12 20 3 8
-1 17 -9 20 -10 4 -12 2 -8 -6 4 -7 3 -8 -4 -4 -6 4 -9 13 -6 20 3 8 1 17 -5
20 -6 4 -7 14 -4 23 5 12 3 14 -8 8 -11 -7 -11 -5 1 11 8 10 20 22 25 26 6 5
5 8 -3 8 -7 0 -10 5 -7 10 4 6 10 8 15 5 4 -3 7 3 5 12 -1 10 7 26 19 36 11
10 14 15 6 11 -13 -7 -13 -5 -1 9 7 9 18 14 24 10 6 -3 7 -1 3 5 -4 6 -14 8
-24 5 -13 -4 -13 -2 3 10 11 8 23 14 26 11 3 -2 5 8 3 22 -2 20 0 23 11 14 11
-9 12 -7 8 9 -3 14 -1 21 8 21 11 0 11 2 -1 10 -13 8 -13 10 2 10 24 0 32 18
40 87 1 9 5 10 14 2 9 -8 11 -6 7 9 -3 13 4 24 22 36 19 12 24 21 17 28 -12
12 -5 38 10 38 6 0 4 -8 -3 -17 -13 -16 -12 -17 3 -5 11 9 15 24 13 45 -2 18
-1 26 2 20 2 -7 9 -13 14 -13 4 0 5 7 2 17 -4 11 -3 14 6 9 8 -5 10 0 7 18 -3
14 0 29 6 32 7 4 8 2 4 -4 -4 -7 -2 -12 3 -12 6 0 11 7 11 15 0 8 4 15 9 15 4
0 7 12 5 26 -2 20 0 24 9 15 6 -6 16 -11 22 -11 5 0 3 5 -5 10 -13 9 -13 12 3
21 9 5 17 15 17 22 0 7 -4 6 -10 -3 -7 -12 -9 -10 -8 7 2 13 7 19 16 16 8 -3
13 0 12 8 -5 30 0 41 16 35 8 -3 12 -2 9 4 -3 6 0 10 7 10 10 0 10 2 -1 9 -9
6 -10 11 -2 15 6 4 15 4 21 1 6 -3 7 1 4 9 -3 9 -10 13 -15 10 -15 -9 -10 3 8
17 15 12 16 12 8 -1 -8 -13 -6 -13 7 -2 9 7 15 22 13 32 -2 10 4 21 13 25 14
5 14 7 2 15 -12 8 -9 10 10 10 19 0 22 2 10 9 -8 6 -19 7 -25 4 -5 -4 -6 -2
-2 3 5 5 13 10 18 10 5 1 13 2 18 3 5 0 12 8 15 17 5 14 4 15 -8 5 -13 -11
-13 -9 -3 13 7 14 16 26 20 26 5 0 5 -5 1 -12 -4 -6 -3 -8 3 -5 6 4 9 20 8 37
-2 24 0 28 10 20 10 -8 13 -4 11 18 -1 19 2 28 10 25 7 -2 11 5 10 19 -1 24
14 49 26 41 4 -2 5 4 1 13 -4 12 -3 15 5 10 8 -5 10 -2 6 8 -3 9 -10 13 -16
10 -5 -3 -4 3 3 14 7 12 15 20 18 20 18 -2 22 4 12 16 -9 11 -9 16 0 22 8 5 9
3 4 -6 -5 -9 -4 -11 4 -6 9 6 9 11 -1 24 -7 9 -8 13 -2 9 7 -4 18 0 25 9 15
18 22 47 9 39 -4 -3 -10 2 -13 10 -4 9 -1 12 7 9 8 -3 17 0 22 7 4 7 3 10 -4
5 -14 -8 -9 21 6 36 15 15 16 31 0 22 -7 -4 -8 -3 -4 4 4 7 15 12 24 12 13 0
14 2 4 8 -7 5 -10 16 -6 25 3 9 11 14 17 10 5 -3 7 -2 4 4 -11 18 -16 64 -6
58 5 -4 6 -11 3 -17 -4 -6 -2 -8 4 -4 11 7 9 36 -4 59 -6 9 -4 9 8 -1 13 -11
16 -10 14 5 0 10 -5 21 -11 25 -6 4 -1 8 10 9 l20 0 -20 9 c-11 5 -15 9 -8 9
7 1 10 8 6 18 -5 12 -3 14 8 8 11 -7 12 -6 3 6 -16 21 -17 72 -1 63 9 -6 9 -4
1 7 -20 26 -24 49 -8 42 10 -4 12 0 8 11 -3 9 -11 13 -17 9 -6 -4 -7 -1 -3 6
5 7 15 10 25 7 12 -5 11 -2 -3 9 -14 11 -16 15 -5 15 12 0 12 2 -1 10 -11 7
-12 10 -2 10 10 0 10 4 -2 16 -20 19 -20 25 -2 18 15 -6 16 11 3 33 -4 6 -3
14 2 18 5 3 9 14 8 25 -1 10 -4 17 -8 14 -4 -2 -9 5 -12 15 -4 15 -1 18 12 13
13 -5 14 -3 4 9 -10 12 -10 18 0 29 10 10 9 12 -5 7 -11 -4 -15 -1 -13 11 2 9
4 21 4 25 1 5 7 5 14 1 10 -6 10 -4 0 7 -7 7 -13 21 -13 32 0 12 -4 16 -12 11
-10 -5 -10 -4 -1 6 10 11 9 16 -5 27 -12 10 -12 12 -2 8 8 -4 6 1 -4 9 -14 11
-15 16 -6 16 9 0 7 5 -6 15 -19 15 -19 15 1 9 19 -5 19 -5 -1 8 -12 7 -19 19
-16 26 2 7 -3 19 -11 25 -15 13 -33 52 -19 43 4 -2 8 4 8 14 0 15 -3 17 -15 7
-9 -7 -12 -8 -8 -1 3 6 0 20 -8 30 -8 10 -15 30 -15 44 0 20 -2 22 -10 10 -8
-12 -10 -11 -10 8 0 12 -5 22 -11 22 -5 0 -7 5 -4 10 3 6 0 10 -7 10 -9 0 -9
3 2 10 13 8 12 10 -4 10 -12 0 -16 5 -12 16 4 9 -6 27 -27 46 -17 17 -27 28
-20 24 6 -3 15 -1 19 5 4 8 3 9 -4 5 -7 -4 -12 -2 -12 4 0 6 -5 8 -12 4 -8 -5
-9 -2 -5 9 3 9 1 19 -5 23 -7 4 -8 3 -4 -4 4 -7 2 -12 -3 -12 -6 0 -11 9 -11
20 0 11 -5 20 -11 20 -5 0 -7 5 -4 10 6 9 -8 14 -28 11 -5 -1 -6 3 -2 9 3 5 1
10 -6 10 -9 0 -9 3 0 14 10 12 8 13 -10 9 -15 -4 -20 -3 -15 5 4 7 1 12 -9 12
-10 0 -13 5 -9 13 5 7 0 6 -11 -3 -17 -14 -18 -13 -12 2 3 10 1 20 -5 24 -7 4
-8 3 -4 -4 4 -7 2 -12 -3 -12 -6 0 -11 6 -11 13 0 8 -4 7 -10 -3 -8 -13 -10
-12 -10 3 0 9 -5 17 -11 17 -5 0 -8 -4 -5 -8 11 -18 -35 -5 -49 14 -13 16 -14
16 -9 2 3 -10 1 -18 -5 -18 -6 0 -11 6 -11 13 0 9 -3 8 -9 -2 -5 -8 -10 -9
-12 -3 -2 6 -22 12 -44 14 -25 2 -47 11 -58 23 -16 19 -17 19 -10 1 4 -13 3
-17 -5 -12 -7 4 -12 13 -12 21 0 8 -4 17 -10 20 -6 3 -7 -1 -4 -12 3 -11 -4
-7 -21 12 -19 21 -24 24 -16 8 8 -16 8 -24 -1 -29 -6 -4 -8 -3 -5 3 3 5 -3 17
-14 26 -10 9 -19 12 -19 6 0 -5 -5 -7 -10 -4 -6 4 -7 11 -4 17 4 5 -4 4 -17
-3 -23 -12 -23 -11 -9 6 14 17 13 18 -2 12 -10 -3 -20 -2 -23 3 -4 6 -12 10
-18 10 -7 0 -6 -4 3 -10 9 -6 10 -10 3 -10 -7 0 -17 8 -22 18 -6 9 -11 11 -11
5 0 -7 -5 -13 -11 -13 -5 0 -7 5 -4 10 3 6 1 10 -4 10 -6 0 -11 -6 -11 -12 0
-8 -3 -9 -8 -3 -8 12 -30 18 -56 17 -11 -1 -25 6 -31 15 -10 13 -14 13 -20 3z
m819 -406 c3 -8 2 -12 -4 -9 -6 3 -10 10 -10 16 0 14 7 11 14 -7z m-1802 -121
c-6 -2 -9 -10 -6 -15 4 -7 2 -8 -5 -4 -13 9 -5 26 12 25 9 0 8 -2 -1 -6z m754
-98 c8 11 14 13 14 6 0 -7 5 -9 10 -6 6 3 10 1 10 -4 0 -6 4 -11 10 -11 5 0 8
6 6 13 -1 6 -1 9 2 4 2 -4 13 -12 25 -19 20 -10 21 -9 9 5 -11 13 -10 15 4 13
10 -2 20 -8 22 -14 2 -7 8 -12 14 -12 6 0 7 8 4 17 -6 15 -4 14 14 -2 11 -10
30 -19 43 -21 12 -1 26 -3 30 -3 5 -1 6 -5 3 -10 -3 -5 1 -12 10 -15 10 -4 13
-2 9 7 -4 6 0 4 8 -5 8 -10 22 -18 31 -18 9 0 16 -5 16 -11 0 -5 5 -7 12 -3 6
4 8 3 5 -3 -4 -6 1 -19 9 -29 9 -10 13 -14 10 -7 -4 6 -1 15 5 19 7 4 9 3 6
-3 -4 -6 0 -16 8 -23 8 -7 12 -16 9 -21 -3 -5 3 -6 12 -2 13 5 16 3 11 -10 -3
-9 -1 -19 5 -23 7 -5 8 -2 3 6 -5 8 -4 11 3 6 6 -4 9 -13 6 -20 -3 -7 2 -16
10 -19 8 -3 20 -16 27 -29 10 -20 10 -22 -2 -13 -8 6 -7 3 2 -6 14 -13 15 -19
6 -29 -7 -7 -7 -10 -2 -8 6 3 16 0 23 -8 11 -12 10 -14 -5 -14 -15 0 -15 -2
-3 -9 8 -6 18 -7 23 -4 5 3 4 -3 -1 -14 -7 -12 -7 -24 0 -37 6 -10 6 -16 1
-13 -12 7 -10 -30 2 -40 4 -5 5 -2 0 6 -5 9 -4 12 3 7 18 -11 14 -22 -10 -35
-13 -6 -15 -9 -5 -7 9 3 17 1 17 -5 0 -6 6 -7 13 -4 6 4 3 -1 -7 -9 -11 -9
-14 -16 -8 -16 10 0 10 -5 1 -21 -6 -12 -7 -19 -1 -15 5 3 12 -6 15 -21 5 -26
4 -27 -10 -8 -14 20 -15 20 -11 0 2 -11 10 -26 18 -33 8 -8 10 -11 3 -8 -6 4
-14 2 -18 -4 -3 -5 -1 -10 4 -10 16 0 9 -24 -9 -32 -11 -5 -10 -7 5 -7 17 -1
18 -3 5 -11 -13 -9 -13 -11 0 -20 13 -8 12 -10 -3 -10 -14 0 -16 -4 -9 -17 5
-10 7 -27 5 -38 -3 -11 -5 -30 -6 -42 0 -12 -5 -19 -9 -17 -5 3 -7 -6 -4 -20
3 -15 1 -24 -4 -21 -5 3 -11 1 -15 -5 -3 -5 0 -10 7 -10 9 0 9 -3 -2 -10 -13
-9 -13 -10 0 -10 9 -1 6 -6 -10 -16 -14 -8 -18 -13 -9 -11 9 3 16 -1 16 -9 0
-8 -6 -13 -14 -10 -7 3 -13 1 -13 -4 0 -6 6 -10 13 -10 6 0 4 -5 -6 -11 -14
-8 -15 -14 -7 -24 8 -9 6 -14 -6 -19 -13 -5 -14 -9 -4 -21 10 -12 8 -16 -11
-24 -19 -8 -20 -10 -5 -10 18 -1 18 -2 -1 -18 -10 -10 -14 -15 -8 -11 8 5 11
0 10 -14 -1 -12 -8 -24 -16 -26 -11 -3 -11 -1 1 7 8 6 10 11 4 11 -19 0 -24
-12 -12 -33 8 -16 8 -19 -4 -15 -9 4 -14 -2 -16 -19 -1 -15 2 -22 9 -17 6 3 3
-5 -6 -19 -9 -15 -14 -31 -10 -36 4 -7 -1 -8 -11 -4 -14 5 -16 3 -11 -11 4
-10 3 -15 -3 -11 -7 4 -9 -4 -5 -23 3 -21 0 -34 -13 -43 -15 -13 -16 -12 -4 3
9 11 10 18 2 23 -6 4 -10 3 -9 -2 1 -4 1 -10 -1 -13 -9 -25 -8 -50 2 -44 7 4
8 3 4 -5 -5 -8 -12 -9 -20 -2 -8 7 -12 5 -12 -9 0 -10 4 -16 9 -13 5 3 3 -5
-5 -17 -7 -12 -18 -31 -24 -41 -6 -10 -14 -16 -17 -12 -4 3 -7 1 -7 -5 0 -7 6
-12 13 -13 9 0 9 -2 -1 -6 -6 -2 -10 -9 -7 -14 4 -5 -1 -6 -9 -3 -11 4 -16 0
-16 -11 0 -10 5 -13 12 -9 7 4 8 3 4 -4 -4 -7 -14 -12 -23 -12 -13 0 -14 -2
-2 -17 10 -11 10 -14 2 -9 -20 11 -36 -3 -22 -20 9 -11 8 -14 -5 -14 -9 0 -20
-8 -24 -17 -9 -22 -29 -27 -29 -8 0 8 5 11 10 8 6 -3 7 -1 3 5 -4 7 -14 12
-22 12 -12 0 -13 4 -3 23 11 19 10 20 -3 9 -13 -10 -17 -10 -22 4 -3 9 -3 21
1 26 3 7 1 8 -5 4 -11 -7 -17 13 -13 38 1 5 -6 6 -15 2 -12 -5 -15 -2 -10 10
5 12 2 15 -11 10 -10 -4 -14 -4 -10 0 4 4 1 14 -6 22 -9 13 -9 14 1 8 6 -4 12
-3 12 2 0 6 -7 13 -16 16 -8 3 -12 10 -9 16 3 5 1 10 -5 10 -6 0 -8 5 -5 10 3
6 -1 10 -10 10 -11 0 -16 8 -15 23 3 35 1 40 -14 28 -10 -9 -13 -7 -13 6 0 34
-3 43 -14 43 -5 0 -7 -4 -4 -10 3 -5 1 -10 -4 -10 -14 0 -14 17 0 25 6 5 3 13
-10 22 -12 8 -19 18 -16 23 3 5 1 11 -4 15 -6 3 -7 13 -4 22 4 11 3 14 -5 9
-7 -4 -12 -1 -12 9 0 20 -25 46 -35 37 -5 -4 -5 -1 -1 6 6 11 11 11 23 0 15
-12 15 -11 2 10 -8 12 -19 22 -26 22 -7 0 -12 10 -10 23 1 13 -3 21 -10 20 -7
-2 -10 4 -6 12 3 9 -2 24 -11 34 -9 10 -13 21 -9 25 5 4 -1 14 -11 22 -18 13
-18 14 -2 14 16 0 16 1 2 16 -9 8 -13 21 -9 27 4 7 -1 6 -10 -2 -15 -12 -17
-12 -11 4 6 14 4 16 -6 10 -9 -5 -11 -4 -6 4 4 6 11 9 15 7 4 -3 8 1 8 9 0 8
-4 12 -8 9 -4 -2 -10 0 -14 6 -3 5 -1 10 5 10 7 0 6 5 -2 14 -7 8 -17 11 -22
8 -5 -3 -6 0 -2 7 6 9 12 9 24 -1 14 -11 14 -9 0 8 -10 11 -18 28 -18 38 0 10
-5 15 -12 11 -7 -4 -4 1 6 9 11 9 14 16 7 16 -7 0 -10 4 -6 9 3 5 0 13 -6 17
-7 4 -9 3 -5 -4 3 -6 3 -13 -2 -16 -4 -2 -8 6 -8 19 0 13 3 22 7 19 4 -2 11 1
15 7 4 7 3 9 -4 5 -6 -3 -15 1 -20 10 -11 20 -4 56 9 48 16 -9 10 3 -8 17 -14
12 -16 12 -8 0 6 -10 4 -12 -4 -6 -9 5 -10 10 -2 18 6 6 11 18 11 26 0 14 -1
14 -10 1 -6 -9 -10 -10 -10 -3 0 6 5 15 11 19 8 5 8 9 -1 14 -18 11 -2 33 19
26 11 -4 9 -1 -5 11 -26 22 -37 50 -22 59 6 4 8 3 4 -4 -3 -6 -1 -14 6 -18 7
-4 10 -4 6 1 -4 4 -3 14 4 22 9 11 8 13 -2 11 -8 -2 -15 4 -15 12 -2 20 15 41
26 34 5 -3 6 3 2 12 -4 11 -8 13 -11 6 -2 -7 -8 -12 -13 -12 -6 0 -5 9 1 21 7
11 9 27 6 34 -3 8 0 17 6 21 6 4 8 3 4 -4 -3 -6 -2 -13 3 -16 11 -7 9 13 -3
33 -7 11 -5 13 7 8 11 -4 14 -2 10 9 -3 7 -10 14 -17 14 -6 1 0 7 14 15 22 13
21 20 -3 16 -5 -1 -6 3 -2 9 3 6 11 8 16 5 5 -4 14 6 19 21 8 21 8 29 -2 36
-10 6 -9 8 4 8 9 0 20 5 24 12 4 7 3 8 -4 4 -14 -9 -15 4 -2 24 9 13 10 13 10
0 1 -8 5 -5 11 8 5 14 13 20 20 16 8 -4 9 -3 5 4 -4 6 -14 9 -24 6 -15 -5 -15
-4 1 6 10 6 24 9 32 6 9 -3 12 1 10 15 -4 18 -2 19 12 7 10 -8 14 -8 10 -1
-11 17 11 27 29 12 8 -7 14 -8 13 -3 -1 5 -1 16 0 24 1 12 5 11 17 -5 16 -19
16 -19 9 5 -7 23 -7 24 10 10 14 -11 17 -11 11 -1 -7 10 -3 12 13 6 15 -4 23
-1 28 10 5 16 7 16 16 -1 9 -16 10 -16 23 1z m1164 -1009 c0 -3 -4 -8 -10 -11
-5 -3 -10 -1 -10 4 0 6 5 11 10 11 6 0 10 -2 10 -4z m-440 -860 c0 -3 -4 -8
-10 -11 -5 -3 -10 -1 -10 4 0 6 5 11 10 11 6 0 10 -2 10 -4z m-76 -131 c-4 -8
-11 -15 -16 -15 -6 0 -5 6 2 15 7 8 14 15 16 15 2 0 1 -7 -2 -15z m-930 -51
c3 -8 2 -12 -4 -9 -6 3 -10 10 -10 16 0 14 7 11 14 -7z m956 -554 c0 -5 -5
-10 -11 -10 -5 0 -7 5 -4 10 3 6 8 10 11 10 2 0 4 -4 4 -10z m275 -789 c3 -5
2 -12 -3 -15 -5 -3 -9 1 -9 9 0 17 3 19 12 6z"/>
<path d="M3550 6789 c-12 -9 -12 -10 4 -5 10 4 26 1 35 -6 14 -12 14 -11 2 5
-16 20 -21 21 -41 6z"/>
<path d="M4445 6159 c-4 -6 -5 -12 -2 -15 2 -3 7 2 10 11 7 17 1 20 -8 4z"/>
<path d="M2370 5960 c0 -5 4 -10 9 -10 6 0 13 5 16 10 3 6 -1 10 -9 10 -9 0
-16 -4 -16 -10z"/>
<path d="M2827 4232 c-13 -15 -14 -21 -4 -32 9 -10 9 -11 0 -6 -8 5 -13 1 -13
-9 0 -9 4 -14 8 -11 5 3 9 -1 9 -9 0 -22 -12 -18 -26 8 l-11 22 6 -24 c4 -15
2 -21 -4 -17 -6 3 -14 1 -18 -5 -5 -8 -3 -9 6 -4 8 5 11 4 7 -2 -4 -6 -21 -10
-38 -9 -28 2 -29 1 -13 -11 17 -12 16 -13 -7 -13 l-24 -1 23 -12 c12 -7 19
-16 16 -20 -4 -4 -5 -7 -2 -7 3 0 12 8 19 17 12 14 12 16 -1 9 -8 -4 -2 3 15
16 16 13 36 23 45 23 8 0 21 4 29 9 11 7 13 5 7 -10 -4 -10 -4 -15 0 -11 4 4
13 -1 21 -11 8 -9 12 -12 9 -5 -4 6 -2 14 4 18 6 4 8 11 5 16 -4 5 -1 9 4 9 6
0 11 5 11 12 0 9 -3 9 -12 0 -19 -19 -32 -14 -17 6 7 9 10 14 5 10 -12 -10
-39 20 -32 37 3 8 1 15 -5 15 -6 0 -7 5 -4 10 10 16 -1 11 -18 -8z"/>
<path d="M2792 4118 c-7 -7 -12 -16 -12 -21 0 -5 7 -1 16 8 9 9 14 18 12 20
-2 3 -10 -1 -16 -7z"/>
<path d="M2896 4078 c5 -7 2 -9 -9 -5 -18 7 -41 -15 -29 -29 4 -4 -2 -2 -12 6
-18 14 -19 14 -7 -7 10 -19 9 -22 -4 -17 -8 4 -15 11 -16 18 0 6 -4 1 -10 -12
-5 -13 -13 -21 -18 -18 -5 4 -8 -2 -6 -11 2 -10 4 -22 4 -27 1 -5 4 -6 8 -3 7
8 33 -11 33 -25 0 -5 -4 -7 -8 -4 -5 3 -9 -1 -9 -8 0 -8 7 -12 16 -9 11 3 10
0 -3 -11 -11 -9 -16 -16 -11 -16 5 0 17 8 28 18 11 9 17 12 14 6 -4 -7 0 -15
9 -18 8 -3 13 -2 10 2 -2 4 2 16 10 27 14 19 15 18 10 -9 -3 -17 -1 -35 5 -42
7 -8 4 -14 -7 -18 -9 -4 -19 -4 -22 -1 -3 3 0 5 6 5 22 0 12 16 -10 17 -13 0
-17 -1 -10 -4 6 -3 10 -8 7 -12 -2 -5 3 -17 11 -27 9 -10 12 -13 8 -5 -5 11
-3 13 10 8 11 -5 15 -3 10 5 -5 8 -2 9 10 5 15 -6 17 -4 11 10 -12 29 -15 73
-5 73 5 0 7 -11 4 -24 -2 -14 3 -29 13 -37 14 -12 16 -12 8 0 -6 11 -4 13 8 8
17 -6 41 15 29 27 -4 4 0 6 8 4 8 -1 19 -7 23 -13 4 -5 5 2 1 18 -4 18 -2 27
7 27 19 0 5 10 -22 16 -46 10 -80 10 -86 1 -3 -6 -2 -7 3 -4 6 3 16 1 24 -4
11 -7 7 -8 -14 -5 -29 5 -48 16 -28 16 7 0 12 5 12 11 0 5 -5 7 -11 4 -6 -4
-5 2 2 13 10 16 16 18 26 10 11 -9 12 -6 3 17 -9 25 -9 27 5 15 13 -11 14 -10
8 6 -6 17 -5 18 13 4 18 -14 18 -14 5 3 -7 9 -23 17 -35 18 -20 0 -21 1 -1 9
18 8 17 9 -8 9 -19 1 -26 -3 -21 -11z m-76 -73 c-10 -12 -10 -15 3 -15 8 0 17
6 20 13 2 6 4 0 4 -15 0 -27 0 -28 -27 -11 -22 12 -25 19 -16 29 16 18 31 17
16 -1z m70 0 c0 -2 -6 -8 -13 -14 -10 -8 -14 -7 -14 2 0 8 6 14 14 14 7 0 13
-1 13 -2z"/>
<path d="M2770 2559 c0 -5 5 -7 10 -4 6 3 10 8 10 11 0 2 -4 4 -10 4 -5 0 -10
-5 -10 -11z"/>
<path d="M900 1625 c0 -5 -11 -15 -25 -21 -17 -9 -24 -9 -22 -1 1 7 -18 12
-49 12 -43 1 -51 -2 -46 -15 4 -11 -1 -10 -19 5 -18 15 -20 16 -10 3 12 -16
11 -18 -3 -18 -10 0 -14 -5 -11 -10 4 -6 12 -8 18 -4 7 3 3 -2 -7 -10 -11 -9
-15 -16 -9 -16 7 0 10 -10 7 -25 -3 -20 -1 -23 13 -19 15 5 15 3 -2 -11 -23
-18 -21 -44 3 -64 16 -13 16 -13 -1 -7 -10 3 -15 2 -12 -3 3 -5 0 -13 -6 -17
-8 -4 -4 -12 12 -21 13 -8 17 -12 9 -10 -10 3 -16 -2 -17 -14 -1 -12 3 -16 15
-13 13 4 13 2 -3 -11 -11 -9 -19 -22 -17 -28 8 -28 9 -76 2 -88 -5 -7 -2 -22
7 -36 14 -22 14 -23 -2 -17 -15 6 -16 4 -7 -13 6 -11 8 -24 4 -28 -4 -5 -1 -5
6 -1 7 4 20 2 29 -6 18 -14 20 -14 46 10 17 15 17 15 11 -4 -7 -17 -6 -18 11
-4 10 8 16 10 12 3 -4 -6 -3 -15 3 -18 6 -4 9 -1 8 6 -2 6 3 14 11 17 8 3 11
0 7 -7 -4 -7 -2 -9 7 -5 9 3 14 17 13 34 -1 20 1 26 8 20 7 -5 12 1 13 17 1
19 -1 22 -8 12 -6 -10 -9 -2 -9 24 0 23 4 36 10 32 6 -3 7 1 4 9 -3 9 -11 13
-18 9 -6 -4 -4 2 4 13 22 29 24 30 17 12 -8 -22 8 -24 17 -3 3 8 11 15 17 15
9 0 9 -4 0 -14 -9 -11 -9 -16 0 -22 7 -4 10 -3 7 2 -3 5 0 15 8 22 8 7 14 8
14 3 0 -5 9 -9 19 -8 11 1 17 6 14 15 -3 7 3 19 13 27 11 8 14 14 7 15 -7 0
-13 4 -13 10 0 5 7 7 16 3 13 -5 15 -3 7 13 -6 10 -8 26 -6 34 3 9 -1 7 -10
-5 -13 -17 -17 -18 -32 -5 -23 19 -69 22 -54 4 8 -10 5 -10 -15 -1 -14 7 -28
18 -31 26 -5 12 -3 12 11 0 16 -13 16 -12 1 18 -11 20 -13 34 -7 38 6 4 8 10
6 14 -3 4 4 7 14 8 11 1 22 -3 26 -8 4 -6 11 -6 20 2 11 9 14 9 14 -1 0 -10 3
-10 15 0 8 7 15 8 15 3 0 -13 63 -9 68 5 2 7 9 9 14 6 6 -4 8 -2 4 4 -3 6 -2
13 4 17 10 6 9 32 -1 50 -4 6 -5 18 -4 28 2 9 -1 17 -6 17 -5 0 -9 -6 -9 -14
0 -8 -9 -12 -25 -11 -14 2 -25 -2 -25 -8 -1 -7 -7 -1 -15 13 -11 20 -14 21
-15 7 0 -12 -4 -16 -12 -10 -7 4 -24 6 -37 4 -13 -1 -28 3 -32 11 -5 7 -9 9
-9 3z m25 -33 c-3 -3 -11 0 -18 7 -9 10 -8 11 6 5 10 -3 15 -9 12 -12z m129
-80 c3 -5 -1 -9 -9 -9 -8 0 -12 4 -9 9 3 4 7 8 9 8 2 0 6 -4 9 -8z m-316 -57
c-3 -3 -9 2 -12 12 -6 14 -5 15 5 6 7 -7 10 -15 7 -18z m0 -160 c-3 -3 -9 2
-12 12 -6 14 -5 15 5 6 7 -7 10 -15 7 -18z m12 -74 c0 -5 -7 -12 -16 -15 -14
-5 -15 -4 -4 9 14 17 20 19 20 6z m11 -88 c13 -17 13 -17 -6 -3 -11 8 -22 16
-24 17 -2 2 0 3 6 3 6 0 17 -8 24 -17z"/>
<path d="M1208 1618 c10 -13 9 -15 -13 -10 -17 3 -25 0 -25 -9 0 -11 -2 -11
-10 1 -5 8 -10 10 -10 5 0 -6 6 -17 13 -24 10 -11 10 -13 0 -7 -8 5 -13 1 -13
-9 0 -9 5 -13 11 -9 6 3 3 -5 -6 -20 -16 -24 -16 -26 0 -26 15 0 15 -1 1 -16
-18 -17 -21 -28 -6 -19 10 6 15 -10 10 -30 -8 -34 -7 -75 3 -75 6 0 2 -6 -9
-14 -10 -8 -16 -18 -11 -22 4 -4 7 -2 7 4 0 7 4 12 10 12 6 0 6 -10 -1 -27 -7
-20 -6 -28 3 -35 9 -5 7 -8 -7 -8 -16 0 -17 -2 -5 -10 16 -10 20 -45 7 -73 -5
-12 -4 -24 5 -35 9 -11 10 -14 1 -8 -7 4 -13 2 -13 -3 0 -10 14 -15 33 -12 5
1 6 -3 2 -8 -3 -6 -13 -7 -23 -4 -9 3 -14 3 -10 -1 3 -4 12 -8 20 -10 7 -1 19
-5 25 -9 9 -5 11 -3 7 6 -3 8 2 14 11 14 8 0 15 -5 15 -11 0 -6 4 -6 11 1 8 8
20 8 35 3 14 -6 26 -6 29 0 4 6 3 10 -2 11 -4 0 1 4 12 9 14 6 15 9 5 9 -14 1
-16 12 -11 64 1 5 6 5 12 1 6 -3 3 5 -6 20 -10 14 -13 26 -7 26 5 0 12 10 15
23 6 22 6 22 -10 2 -9 -11 -14 -14 -11 -5 17 51 19 62 11 57 -5 -3 -9 3 -9 14
0 10 3 19 6 19 3 0 6 9 6 20 0 11 -5 20 -10 20 -5 0 -1 6 10 14 10 8 16 18 11
22 -4 4 -7 2 -7 -4 0 -7 -4 -12 -8 -12 -4 0 -8 9 -8 20 0 11 4 20 9 20 5 0 4
7 -3 15 -9 10 -9 15 -1 15 6 0 11 5 11 11 0 5 -4 8 -9 4 -6 -3 -6 7 -1 26 7
25 6 30 -5 25 -9 -3 -12 0 -9 9 3 8 12 11 22 7 14 -5 15 -4 2 10 -8 9 -18 14
-22 12 -3 -2 -9 2 -11 8 -4 10 -6 10 -6 1 -1 -7 -6 -13 -12 -13 -5 0 -7 4 -4
10 3 5 0 7 -9 4 -8 -3 -25 0 -38 7 -20 11 -21 10 -10 -3z"/>
<path d="M1621 1624 c-1 -15 -39 -25 -47 -13 -3 5 -22 6 -42 3 -48 -7 -52 -7
-84 -1 -28 6 -34 -9 -13 -26 6 -5 0 -6 -12 -2 -12 3 -24 1 -28 -5 -4 -6 -1 -9
6 -8 6 2 14 -3 17 -11 2 -8 0 -11 -6 -7 -6 3 -14 1 -18 -5 -4 -7 -3 -9 3 -6 6
4 16 0 23 -8 11 -13 10 -14 -4 -9 -14 5 -15 3 -6 -21 13 -34 13 -35 -7 -35
-15 0 -16 -2 -3 -9 8 -6 17 -8 20 -6 4 2 7 -2 7 -10 0 -11 -4 -12 -13 -4 -8 7
-14 6 -20 -2 -4 -8 -3 -9 5 -5 8 5 10 0 7 -18 -3 -14 0 -26 6 -26 6 0 7 8 3
18 -4 12 -3 14 5 6 15 -15 2 -44 -18 -37 -14 4 -14 3 -3 -5 12 -9 13 -13 1
-27 -11 -14 -11 -16 1 -13 8 2 13 -3 11 -12 -2 -8 -4 -27 -4 -42 -1 -17 -5
-25 -12 -21 -6 4 -5 -1 3 -10 15 -19 26 -23 15 -5 -4 7 -3 8 4 4 17 -10 15
-15 -10 -26 -21 -8 -21 -9 -3 -10 20 -1 20 -1 1 -15 -11 -8 -14 -15 -8 -15 7
0 12 -9 12 -21 0 -13 4 -18 13 -13 7 5 6 0 -3 -11 -9 -11 -10 -16 -2 -11 7 4
12 2 12 -5 0 -10 3 -10 12 -1 16 16 31 15 22 0 -6 -10 -4 -10 7 0 15 14 33 16
24 3 -3 -5 0 -13 6 -17 7 -4 9 -3 5 4 -3 6 -2 13 4 17 5 3 10 0 10 -7 1 -7 8
-2 16 12 8 14 13 17 10 8 -3 -11 0 -18 9 -18 8 0 12 8 10 20 -2 11 3 24 12 28
13 8 13 10 -1 15 -11 5 -15 3 -10 -5 4 -7 3 -8 -4 -4 -9 5 -8 13 3 30 13 19
13 25 0 43 -11 16 -12 23 -2 30 22 18 44 22 57 10 10 -9 11 -9 6 1 -6 9 -1 11
19 8 23 -4 25 -2 20 17 -5 17 -4 19 4 7 8 -12 11 -11 17 5 4 11 13 28 21 37
12 13 12 16 1 14 -7 -1 -19 -5 -26 -10 -7 -4 -3 9 8 29 l21 37 -27 -21 c-24
-19 -29 -20 -43 -7 -11 10 -21 12 -34 5 -23 -13 -37 -3 -37 27 0 17 -4 23 -12
19 -7 -4 -5 0 5 8 18 15 24 32 7 22 -6 -4 -7 1 -3 11 4 11 8 13 11 6 2 -7 8
-12 13 -12 6 0 8 4 5 9 -4 5 2 8 11 6 10 -1 27 2 38 7 19 9 19 8 2 -5 -16 -14
-15 -15 12 -13 24 1 27 3 18 15 -10 12 -9 13 10 3 12 -7 23 -17 25 -24 3 -7 7
-5 11 6 5 12 3 15 -6 10 -7 -4 -9 -3 -4 2 5 5 18 9 30 9 16 0 21 6 19 19 -2
12 1 15 8 11 9 -5 8 0 -1 16 -11 21 -10 22 2 12 12 -10 15 -8 15 7 0 11 -2 17
-4 15 -3 -2 -17 2 -33 10 -32 17 -43 19 -34 6 3 -5 1 -12 -4 -15 -5 -4 -12 -2
-16 4 -3 5 -19 10 -35 10 -15 0 -31 6 -33 13 -4 7 -6 8 -6 1z m24 -32 c-3 -3
-11 0 -18 7 -9 10 -8 11 6 5 10 -3 15 -9 12 -12z m-218 -317 c0 -8 -4 -12 -9
-9 -5 3 -6 10 -3 15 9 13 12 11 12 -6z m3 -95 c0 -5 -2 -10 -4 -10 -3 0 -8 5
-11 10 -3 6 -1 10 4 10 6 0 11 -4 11 -10z"/>
<path d="M1680 1626 c0 -2 8 -10 18 -17 15 -13 16 -12 3 4 -13 16 -21 21 -21
13z"/>
<path d="M1983 1615 c0 -7 6 -11 14 -8 7 3 13 6 13 8 0 2 -6 5 -13 8 -8 3 -14
-1 -14 -8z"/>
<path d="M2304 1615 c-4 -8 -10 -15 -16 -15 -5 0 -6 5 -2 12 4 7 3 8 -5 4 -8
-5 -7 -13 4 -29 18 -25 19 -37 4 -37 -5 0 -8 4 -5 9 3 5 -2 15 -12 22 -15 13
-16 12 -3 -3 7 -10 10 -18 6 -18 -5 0 0 -9 9 -19 10 -11 15 -25 11 -30 -3 -6
-1 -11 5 -11 6 0 8 -5 3 -12 -12 -20 -12 -39 0 -31 7 4 8 0 4 -11 -4 -9 -3
-14 2 -11 5 3 12 1 15 -4 4 -5 -2 -12 -11 -14 -17 -4 -17 -5 0 -6 9 0 17 -6
17 -12 0 -5 -6 -7 -12 -3 -10 6 -10 4 0 -7 6 -7 12 -23 12 -36 0 -13 6 -23 13
-23 8 0 7 -4 -3 -10 -8 -5 -10 -10 -4 -10 7 0 14 -9 17 -20 3 -13 1 -18 -6
-13 -7 4 -5 -1 3 -11 16 -21 23 -49 9 -40 -16 9 -10 -6 11 -28 15 -16 17 -25
9 -35 -8 -9 -8 -13 0 -13 6 0 11 -8 12 -17 0 -12 2 -13 6 -5 4 10 8 9 19 -5
13 -17 13 -17 14 1 0 12 5 16 16 12 9 -3 18 -6 20 -6 3 0 3 -4 0 -8 -2 -4 8
-8 24 -7 22 0 26 3 18 13 -9 10 -6 11 16 3 18 -7 26 -7 26 0 0 6 4 8 8 5 13
-8 11 27 -2 43 -9 12 -8 14 5 9 12 -5 15 -1 11 18 -2 13 2 32 9 41 12 15 12
16 -3 10 -15 -5 -16 -3 -7 21 6 15 10 28 10 30 -5 15 2 23 14 18 12 -4 13 -2
3 14 -7 10 -16 16 -22 13 -5 -3 -6 -1 -2 5 5 9 13 9 29 1 21 -11 21 -11 6 7
-15 18 -19 68 -6 81 4 3 7 1 7 -6 0 -7 5 -9 13 -5 6 4 3 -3 -8 -16 l-20 -23
22 12 c16 8 24 8 29 -1 4 -7 3 -8 -4 -4 -7 4 -12 1 -12 -9 0 -9 4 -14 9 -10 5
3 12 1 15 -4 4 -5 1 -13 -5 -17 -8 -5 -9 -3 -4 6 5 9 4 11 -3 6 -17 -10 -15
-15 11 -26 l22 -9 -24 0 -23 -1 23 -20 c21 -17 21 -19 4 -13 -17 6 -18 5 -7
-9 7 -8 9 -24 5 -33 -5 -13 -3 -16 6 -10 10 6 11 2 6 -15 -5 -15 -3 -20 3 -16
6 3 13 2 16 -3 4 -5 1 -13 -5 -17 -8 -5 -9 -3 -4 6 5 8 4 11 -3 6 -6 -4 -9
-13 -6 -21 4 -8 11 -12 18 -8 6 4 5 -1 -3 -10 -11 -14 -11 -17 0 -17 12 0 12
-2 0 -9 -11 -7 -9 -10 8 -16 11 -3 21 -11 21 -16 0 -5 10 -4 23 3 33 19 56 18
49 -1 -4 -13 -1 -12 17 3 22 20 22 20 15 0 -9 -24 5 -12 20 18 6 12 23 28 36
35 22 11 15 19 -13 14 -5 -1 -6 3 -2 9 3 5 14 10 23 10 10 0 13 3 7 8 -14 10
-12 45 3 50 6 2 12 8 12 13 0 6 -4 8 -8 5 -5 -3 -9 1 -9 9 0 8 4 12 7 10 4 -3
8 10 9 28 1 58 4 65 19 59 11 -4 13 -2 6 9 -12 20 -14 38 -3 45 5 3 9 2 8 -3
-3 -19 2 -33 12 -33 8 0 8 5 -1 15 -7 8 -9 15 -4 15 5 0 0 7 -10 15 -17 13
-18 15 -3 15 9 0 17 7 17 16 0 9 -5 12 -12 8 -10 -6 -10 -5 -1 8 7 8 10 18 6
21 -3 4 1 9 10 13 12 4 14 11 8 22 -4 10 -7 27 -6 40 1 18 -2 21 -18 16 -12
-4 -17 -2 -13 5 4 5 -6 4 -20 -4 -21 -11 -32 -11 -48 -3 -20 11 -20 10 -6 -7
14 -17 13 -18 -3 -12 -15 6 -16 4 -7 -13 7 -13 7 -21 -2 -26 -6 -4 -8 -3 -4 4
3 6 3 13 -2 16 -4 2 -8 -6 -8 -19 0 -13 3 -22 6 -20 4 2 7 -2 7 -10 0 -8 -4
-12 -9 -8 -6 3 -8 -5 -6 -18 2 -13 -2 -23 -7 -22 -6 1 -10 -12 -10 -28 -1 -22
3 -28 15 -24 11 4 11 2 -2 -8 -12 -9 -14 -17 -7 -24 7 -7 6 -15 -4 -25 -10 -9
-12 -20 -6 -30 6 -11 4 -18 -7 -22 -9 -3 -12 -11 -8 -18 5 -10 4 -10 -6 -1 -8
7 -15 20 -16 28 -2 13 0 14 12 4 12 -10 13 -9 8 5 -3 9 -13 16 -21 16 -8 0
-11 5 -8 10 4 6 11 8 16 5 5 -4 9 -1 9 5 0 7 -8 9 -22 4 -20 -6 -21 -5 -9 10
12 15 8 21 -12 17 -5 -1 -6 3 -2 9 3 6 11 8 16 5 5 -4 9 -1 9 4 0 6 -6 11 -12
11 -9 0 -8 4 2 10 8 5 10 10 4 10 -7 0 -15 7 -18 16 -3 8 -2 12 4 9 17 -10 11
7 -7 22 -10 8 -13 12 -7 9 7 -3 14 1 17 9 4 10 1 12 -11 8 -13 -5 -15 -4 -6 8
5 8 10 19 9 24 -3 22 -24 63 -36 71 -8 4 -10 3 -5 -4 4 -7 1 -12 -9 -12 -9 0
-13 4 -10 10 3 6 -1 7 -9 4 -9 -3 -13 -11 -9 -17 3 -6 1 -7 -5 -3 -6 4 -35 8
-64 10 -29 1 -48 1 -42 -1 8 -3 5 -16 -7 -40 -13 -26 -16 -41 -8 -54 6 -12 6
-19 0 -19 -5 0 -8 -9 -6 -20 2 -11 0 -20 -4 -20 -5 0 -5 -18 -1 -40 4 -23 5
-38 2 -35 -3 2 -11 0 -19 -6 -10 -9 -10 -15 -2 -25 8 -10 9 -18 0 -27 -6 -8
-8 -16 -5 -19 2 -3 -3 -8 -12 -12 -15 -6 -15 -4 1 21 l18 28 -21 -19 c-23 -20
-31 -9 -10 12 9 9 9 12 -2 12 -11 0 -11 3 -2 12 16 16 15 28 -2 28 -8 0 -17 7
-20 16 -5 14 -4 15 9 4 20 -16 19 -6 -1 14 -12 12 -12 16 -2 16 10 0 9 3 -2
11 -12 8 -12 12 -2 16 10 4 9 9 -5 20 -10 8 -13 12 -6 9 7 -4 9 1 6 15 -4 12
0 25 8 31 11 8 10 9 -3 4 -20 -6 -34 10 -16 17 10 4 10 6 1 6 -7 1 -13 10 -13
21 0 21 -12 24 -75 21 -23 -2 -27 0 -15 8 11 8 11 11 2 11 -7 0 -15 -7 -18
-15z m413 -60 c0 -8 -4 -12 -9 -9 -5 3 -6 10 -3 15 9 13 12 11 12 -6z m-180
-20 c0 -8 -4 -12 -9 -9 -5 3 -6 10 -3 15 9 13 12 11 12 -6z m91 -80 c-3 -3 -9
2 -12 12 -6 14 -5 15 5 6 7 -7 10 -15 7 -18z m196 6 c3 -5 -1 -11 -9 -14 -9
-4 -12 -1 -8 9 6 16 10 17 17 5z m-367 -87 c-3 -3 -12 -4 -19 -1 -8 3 -5 6 6
6 11 1 17 -2 13 -5z m98 -223 c-3 -6 -11 -11 -16 -11 -5 0 -4 6 3 14 14 16 24
13 13 -3z"/>
<path d="M2856 1618 c3 -5 10 -6 15 -3 13 9 11 12 -6 12 -8 0 -12 -4 -9 -9z"/>
<path d="M3113 1615 c-13 -7 -20 -15 -15 -20 4 -4 -3 -3 -14 3 -18 10 -21 9
-20 -6 1 -12 -6 -17 -21 -16 -13 1 -20 -3 -16 -9 3 -5 -2 -16 -11 -23 -10 -7
-17 -16 -17 -21 1 -4 -2 -8 -6 -8 -5 0 -17 -6 -28 -13 -19 -12 -18 -12 5 -6
22 6 23 5 11 -9 -7 -9 -11 -23 -8 -32 4 -8 1 -17 -5 -21 -6 -4 -8 -3 -5 2 3 6
1 16 -4 24 -7 12 -8 10 -6 -7 2 -12 6 -25 10 -29 3 -3 -1 -13 -9 -22 -10 -10
-12 -18 -5 -25 7 -7 7 -16 0 -29 -7 -14 -6 -20 6 -24 8 -3 15 -10 15 -16 0 -5
-4 -7 -8 -4 -5 3 -9 -1 -9 -9 0 -8 3 -13 5 -10 12 11 30 -30 21 -48 -7 -12 -6
-17 3 -15 7 2 12 -2 11 -9 -2 -7 6 -10 19 -8 16 3 19 2 10 -7 -12 -12 1 -48
19 -48 6 0 3 7 -5 16 -9 8 -16 18 -16 22 0 4 14 -8 30 -25 30 -33 50 -42 50
-22 0 5 -5 7 -12 3 -7 -4 -8 -3 -4 5 9 13 26 5 26 -13 0 -7 12 -11 30 -10 17
1 30 -3 30 -9 0 -7 5 -5 10 3 7 10 10 11 10 2 0 -13 39 -10 62 5 17 10 39 13
34 4 -3 -4 4 -7 14 -7 15 0 17 3 7 15 -9 12 -9 13 1 7 7 -4 12 -2 12 4 0 6 4
8 10 5 12 -8 60 24 60 40 0 7 10 20 23 29 12 9 16 14 8 10 -9 -4 -12 -2 -9 7
3 8 11 13 17 11 9 -2 9 3 0 19 -9 18 -9 21 3 16 8 -3 15 1 15 9 0 7 -5 10 -11
7 -6 -4 -6 0 1 8 13 17 14 59 0 59 -4 0 -5 5 -2 10 4 6 12 7 18 3 8 -5 8 -2 0
9 -7 8 -10 18 -6 21 3 4 1 7 -6 7 -7 0 -9 5 -6 10 5 8 12 7 23 -2 15 -12 16
-11 3 5 -7 9 -19 17 -26 17 -8 0 -11 8 -8 20 3 12 0 20 -7 20 -9 0 -9 4 1 17
8 9 9 14 3 10 -6 -3 -17 4 -25 15 -8 12 -22 28 -33 37 -10 9 -24 22 -31 29 -8
6 -20 12 -27 12 -10 0 -9 -3 2 -10 8 -5 11 -10 5 -10 -17 1 -45 27 -37 35 4 4
-6 -1 -23 -11 -16 -10 -26 -14 -22 -8 9 16 -18 25 -32 11 -7 -7 -11 -7 -11 -1
0 14 -49 13 -77 -1z m37 1 c0 -3 -4 -8 -10 -11 -5 -3 -10 -1 -10 4 0 6 5 11
10 11 6 0 10 -2 10 -4z m54 -106 c4 0 4 5 1 10 -3 6 -1 10 4 10 6 0 11 -6 12
-12 0 -10 2 -10 6 0 2 6 9 12 14 12 6 0 7 -4 4 -10 -3 -5 -1 -10 5 -10 7 0 9
-7 6 -16 -6 -15 -4 -15 11 -3 11 9 14 10 9 2 -4 -7 -2 -13 3 -13 6 0 11 -11
11 -25 0 -14 5 -25 11 -25 5 0 7 5 3 12 -5 7 -3 8 6 3 10 -6 9 -11 -5 -22 -13
-8 -14 -13 -5 -13 7 0 11 -3 7 -6 -3 -3 -2 -17 4 -31 6 -17 6 -22 -2 -17 -8 4
-9 -1 -4 -16 6 -17 4 -21 -6 -14 -10 6 -10 3 1 -11 12 -15 12 -17 1 -10 -11 6
-13 4 -8 -8 4 -12 1 -17 -11 -17 -15 0 -15 -2 -2 -10 13 -8 12 -10 -3 -10 -10
0 -16 -4 -12 -9 3 -5 0 -13 -6 -17 -18 -11 -109 -11 -116 -1 -4 6 -1 7 8 1 8
-4 -3 9 -24 30 -33 32 -36 40 -25 54 11 14 10 15 -7 8 -15 -5 -17 -4 -9 4 8 8
9 24 4 46 -7 31 -6 33 8 22 11 -9 14 -10 8 -1 -4 7 -2 23 5 35 l12 23 -23 -20
-23 -20 14 23 c8 12 17 22 22 22 4 0 6 4 2 9 -3 5 5 17 17 26 13 8 22 18 20
21 -7 12 6 15 14 3 5 -8 3 -10 -6 -4 -9 5 -11 4 -6 -4 11 -16 28 -2 22 18 -5
14 -4 13 8 -1 7 -10 16 -18 20 -18z"/>
<path d="M3131 1474 c0 -11 3 -14 6 -6 3 7 2 16 -1 19 -3 4 -6 -2 -5 -13z"/>
<path d="M3497 1611 c3 -13 1 -21 -6 -21 -7 0 -9 5 -5 12 4 7 3 8 -5 4 -6 -4
-8 -13 -4 -19 13 -20 12 -41 0 -49 -8 -5 -6 -8 7 -8 16 0 16 -2 -5 -21 -24
-20 -24 -20 -1 -9 12 6 22 7 22 1 0 -5 -7 -12 -16 -15 -13 -5 -14 -9 -4 -21 7
-9 10 -18 7 -21 -3 -3 -2 -17 3 -30 6 -15 5 -26 -2 -30 -7 -5 -8 -3 -3 6 5 9
4 11 -3 6 -18 -11 -14 -22 10 -33 19 -8 20 -10 4 -16 -11 -5 -15 -3 -10 5 4 7
3 8 -4 4 -6 -4 -9 -13 -6 -21 4 -8 9 -13 13 -10 4 2 8 -2 8 -9 0 -8 -7 -12
-16 -9 -14 4 -14 3 1 -9 15 -13 15 -15 0 -27 -16 -11 -16 -12 1 -7 9 3 17 1
17 -4 0 -9 -15 -14 -33 -11 -5 1 -5 -3 -2 -9 4 -6 14 -9 22 -5 13 4 13 3 4 -9
-20 -24 -21 -85 -2 -95 9 -5 22 -6 29 -4 6 3 12 0 12 -7 0 -6 5 -8 10 -5 6 4
8 10 6 14 -3 4 1 8 9 8 8 0 12 -4 10 -7 -3 -4 8 -7 24 -6 16 0 27 4 25 8 -2 3
2 9 8 11 10 4 9 6 -1 6 -11 1 -11 4 0 18 8 9 9 14 3 10 -7 -4 -15 0 -18 9 -3
8 -2 12 4 9 11 -7 9 23 -3 42 -4 6 -3 15 3 18 8 5 7 12 -2 23 -11 13 -11 14 1
7 11 -6 13 -4 8 9 -4 9 -3 15 2 12 5 -3 11 1 14 8 5 12 11 12 31 3 14 -7 26
-16 26 -20 0 -5 5 -5 10 -2 6 3 10 1 10 -4 0 -6 -6 -11 -12 -11 -9 0 -8 -3 2
-9 8 -6 19 -7 25 -3 5 3 3 -3 -5 -13 -8 -10 -10 -16 -4 -12 14 8 22 -9 20 -45
-1 -14 1 -25 4 -23 3 2 12 -6 20 -18 12 -20 12 -21 -4 -8 -14 12 -16 12 -10
-3 4 -11 14 -16 25 -13 11 3 16 0 13 -7 -2 -7 4 -12 15 -12 16 0 18 3 8 15
-10 12 -9 13 11 2 13 -7 30 -10 37 -7 8 3 16 0 19 -7 3 -9 5 -8 5 1 1 7 6 10
12 6 8 -4 8 0 0 15 -7 12 -9 26 -6 31 3 6 0 10 -7 10 -9 0 -9 3 2 10 10 6 11
10 3 10 -7 0 -13 6 -13 14 0 8 -6 17 -12 19 -10 4 -10 6 1 6 8 1 4 8 -10 21
-21 18 -22 19 -4 14 19 -5 19 -5 3 9 -10 8 -18 20 -18 27 0 7 -8 19 -17 27
-12 10 -13 12 -3 8 8 -4 6 1 -4 9 -19 15 -19 16 -2 16 16 0 17 2 5 17 -13 15
-12 15 11 3 14 -7 22 -9 18 -5 -4 4 0 14 8 22 8 8 11 20 7 26 -4 7 2 5 12 -3
19 -15 19 -15 1 14 -16 25 -16 28 -3 23 9 -3 19 -1 23 5 4 6 3 8 -3 5 -6 -4
-14 0 -17 9 -3 8 -2 12 3 9 5 -3 12 -1 15 4 3 5 -4 11 -15 14 -18 5 -19 8 -9
27 7 13 8 20 2 16 -6 -3 -13 -2 -17 4 -4 6 -11 7 -17 4 -7 -4 -8 -2 -4 4 4 6
14 9 24 6 15 -5 15 -5 -1 6 -9 6 -22 8 -27 5 -6 -3 -10 -2 -10 4 0 6 -7 8 -16
4 -13 -5 -15 -1 -10 18 3 13 3 18 0 12 -3 -7 -12 -13 -20 -13 -9 0 -12 5 -8
12 5 7 3 8 -5 4 -7 -5 -10 -15 -7 -25 5 -14 4 -14 -6 -1 -14 16 -45 19 -65 7
-6 -4 -15 -2 -19 4 -5 8 -3 9 6 4 9 -6 11 -4 6 4 -6 9 -12 8 -26 -4 -14 -12
-20 -13 -26 -4 -5 8 -3 10 6 4 9 -5 11 -4 6 3 -5 9 -14 7 -32 -4 -22 -15 -24
-15 -18 0 5 12 2 15 -10 10 -9 -3 -14 -9 -11 -13 7 -12 -32 -6 -48 8 -13 10
-15 9 -10 -8z m193 -93 c0 -5 -5 -6 -12 -2 -7 4 -8 3 -4 -4 5 -9 13 -9 26 -2
14 7 23 6 34 -6 23 -22 20 -31 -3 -10 -14 13 -21 14 -27 5 -4 -7 -3 -10 3 -6
14 9 43 -30 36 -49 -3 -9 -13 -14 -24 -11 -11 3 -16 0 -13 -7 2 -6 -5 -12 -16
-13 -13 -1 -18 2 -14 10 5 8 3 8 -7 0 -7 -7 -17 -13 -22 -13 -4 0 -5 6 -1 13
6 9 4 9 -8 -1 -13 -10 -17 -10 -23 5 -12 28 -13 53 -2 46 6 -4 8 1 4 11 -4 10
-3 15 3 11 6 -3 10 -1 10 4 0 6 -6 11 -12 11 -10 0 -10 2 -1 8 17 11 73 11 73
0z m-180 -343 c0 -2 -6 -5 -13 -8 -8 -3 -14 1 -14 8 0 7 6 11 14 8 7 -3 13 -6
13 -8z m-5 -35 c3 -6 -1 -7 -9 -4 -18 7 -21 14 -7 14 6 0 13 -4 16 -10z m105
6 c0 -3 -4 -8 -10 -11 -5 -3 -10 -1 -10 4 0 6 5 11 10 11 6 0 10 -2 10 -4z
m264 -4 c2 -4 -4 -8 -14 -8 -10 0 -16 4 -14 8 3 4 9 8 14 8 5 0 11 -4 14 -8z"/>
<path d="M3615 1440 c3 -5 8 -10 11 -10 2 0 4 5 4 10 0 6 -5 10 -11 10 -5 0
-7 -4 -4 -10z"/>
<path d="M4016 1615 c-10 -8 -23 -12 -27 -9 -17 10 -49 13 -44 3 4 -5 1 -9 -6
-9 -7 0 -9 -3 -6 -6 4 -4 15 -1 24 7 10 7 7 0 -7 -15 -14 -16 -20 -26 -14 -23
7 4 15 0 18 -9 3 -8 2 -13 -3 -10 -5 3 -12 -1 -15 -10 -9 -24 -7 -31 4 -14 8
12 10 10 7 -10 -1 -14 -6 -31 -11 -39 -6 -10 -5 -12 2 -7 7 4 12 1 12 -9 0 -9
-4 -14 -8 -11 -5 3 -9 -1 -9 -9 0 -8 4 -12 9 -9 4 3 8 -2 8 -11 0 -9 -4 -13
-10 -10 -5 3 -10 1 -10 -4 0 -6 5 -11 11 -11 8 0 7 -6 -2 -17 -12 -14 -12 -15
0 -9 10 7 12 3 6 -14 -4 -13 -3 -20 2 -17 14 9 9 -29 -6 -47 -11 -14 -11 -16
5 -16 17 0 17 -1 -2 -15 -19 -15 -19 -15 0 -26 19 -12 19 -12 1 -25 -10 -8
-13 -14 -7 -14 7 0 12 -13 12 -30 0 -16 5 -30 11 -30 5 0 7 -6 3 -12 -6 -10
-4 -10 7 0 15 14 55 16 63 3 3 -5 15 -7 26 -4 11 3 18 9 15 12 -2 4 2 8 9 8 9
0 12 -7 8 -16 -4 -13 -3 -14 9 -5 8 6 28 11 44 12 23 1 26 -1 15 -8 -9 -6 -10
-10 -3 -10 6 0 14 4 17 9 3 5 20 8 37 7 18 -1 34 4 40 13 8 14 9 14 7 1 -2 -9
0 -17 5 -18 4 -1 7 1 8 6 0 4 5 12 10 19 7 7 6 14 -2 19 -8 5 -9 3 -4 -6 6 -9
4 -11 -5 -5 -10 6 -9 11 5 22 17 12 13 18 -9 14 -5 -1 -4 4 1 11 8 9 8 18 -2
31 -11 16 -13 16 -19 2 -4 -11 -2 -14 6 -9 7 4 8 3 4 -4 -5 -9 -15 -7 -34 6
-14 9 -23 11 -19 5 5 -7 4 -13 0 -13 -5 0 -15 6 -22 13 -12 10 -13 8 -7 -8 6
-15 4 -17 -5 -8 -6 6 -19 9 -28 5 -14 -5 -14 -4 -1 13 14 17 14 17 -7 5 -12
-8 -20 -18 -17 -22 13 -21 -27 7 -41 29 -10 14 -12 23 -7 19 6 -3 13 -2 17 4
3 5 0 10 -7 10 -9 0 -9 3 2 10 13 9 13 10 0 10 -13 0 -13 1 0 10 8 5 10 10 4
10 -7 0 -15 7 -18 16 -5 13 -4 14 7 6 10 -9 14 -8 14 3 0 8 -5 15 -11 15 -6 0
-4 5 4 10 12 8 12 10 1 10 -10 0 -11 3 -3 13 7 8 7 18 2 27 -6 9 -5 17 3 22 9
6 9 8 0 8 -7 0 -13 5 -13 11 0 5 4 8 8 5 4 -2 8 4 8 15 0 10 -3 19 -6 19 -4 0
-7 7 -7 15 0 11 4 12 14 4 18 -16 16 -4 -3 15 -12 12 -12 16 -2 16 8 1 6 7 -7
17 -16 12 -16 14 -3 10 10 -3 20 -1 24 5 4 7 3 8 -4 4 -7 -4 -12 -2 -12 4 0 6
-5 8 -12 4 -7 -5 -9 -2 -5 8 4 12 0 15 -16 11 -18 -4 -19 -3 -7 6 8 6 11 11 5
11 -5 -1 -19 -7 -29 -15z"/>
<path d="M4364 1616 c-3 -9 -12 -12 -22 -8 -15 5 -15 4 -3 -11 12 -16 12 -17
-5 -11 -16 6 -17 5 -6 -7 17 -18 15 -29 -5 -30 -14 0 -13 -2 5 -9 12 -5 22
-12 22 -14 0 -3 -6 -3 -14 0 -11 4 -13 0 -9 -17 5 -17 3 -20 -7 -14 -9 5 -11
4 -6 -4 4 -6 11 -9 16 -6 5 3 11 1 15 -5 3 -6 -4 -10 -17 -11 -13 0 -17 -3
-10 -6 15 -6 16 -33 0 -33 -6 0 -3 -7 8 -15 12 -9 14 -14 5 -15 -10 0 -9 -6 4
-27 15 -23 15 -25 2 -20 -26 10 -29 -10 -5 -27 l22 -16 -24 0 c-18 0 -21 -3
-11 -9 8 -5 11 -16 8 -24 -3 -8 -3 -18 1 -21 3 -4 7 -14 8 -24 2 -15 1 -14
-12 2 -8 11 -14 16 -14 10 1 -15 26 -44 33 -37 4 3 7 1 7 -5 0 -7 -7 -12 -16
-12 -13 0 -14 -3 -5 -14 6 -7 8 -22 5 -32 -4 -11 -4 -16 1 -12 4 4 14 3 22 -3
10 -9 13 -8 13 2 0 10 3 10 12 1 7 -7 17 -8 29 -2 13 7 22 6 33 -6 11 -10 16
-11 16 -3 0 7 3 9 6 6 4 -3 15 -2 25 3 13 8 20 6 28 -7 9 -16 10 -16 11 -1 0
14 5 15 31 8 25 -7 30 -6 25 5 -7 19 17 14 26 -5 6 -13 7 -12 7 2 1 11 7 15
20 11 11 -3 21 2 24 11 4 9 13 16 22 16 8 0 15 6 15 13 0 9 2 9 8 0 5 -8 12
-7 27 4 20 16 20 16 0 9 -12 -4 -5 6 17 24 29 24 36 36 32 56 -3 17 -1 23 7
19 8 -6 8 -2 0 14 -8 14 -8 21 -1 21 5 0 10 5 10 11 0 5 -6 7 -12 3 -8 -5 -7
0 2 11 8 10 15 28 15 41 1 23 0 23 -19 6 -14 -11 -17 -12 -10 -2 18 25 23 59
10 70 -7 5 -15 8 -18 5 -2 -3 -5 1 -5 9 0 9 6 12 16 8 14 -5 14 -4 1 10 -8 9
-19 14 -23 11 -5 -3 -7 3 -5 13 2 13 -4 20 -20 22 -13 2 -19 8 -16 14 4 6 1 9
-7 6 -8 -3 -26 4 -41 14 -16 11 -28 16 -28 13 0 -4 -7 1 -16 10 -10 10 -20 12
-28 7 -6 -5 -20 -8 -31 -6 -11 1 -23 -2 -28 -9 -5 -7 -5 -1 -2 13 6 20 5 23
-6 13 -7 -7 -24 -13 -38 -13 -21 0 -23 2 -11 10 9 6 10 10 3 10 -6 0 -15 -5
-19 -11 -4 -7 -21 -9 -40 -6 -20 4 -32 2 -29 -3 3 -6 -1 -7 -9 -4 -9 3 -13 10
-10 15 3 5 3 9 -1 9 -3 0 -8 -6 -11 -14z m154 -107 c-7 -5 4 -6 26 -2 30 5 37
3 31 -6 -6 -10 -3 -10 16 0 23 12 23 11 9 -6 -9 -11 -10 -16 -2 -11 7 4 12 2
12 -6 0 -9 3 -9 10 2 8 12 10 10 10 -8 0 -13 4 -20 10 -17 6 3 10 2 10 -4 0
-5 -6 -12 -12 -14 -8 -3 -5 -6 6 -6 15 -1 16 -4 6 -16 -11 -13 -10 -14 2 -10
11 4 14 -4 14 -39 -1 -24 -4 -42 -8 -40 -4 2 -9 0 -13 -6 -3 -5 -1 -10 4 -10
6 0 11 -4 11 -10 0 -5 -7 -6 -17 -3 -11 4 -14 3 -9 -5 4 -7 3 -12 -3 -12 -6 0
-8 -8 -4 -17 3 -10 3 -15 -2 -11 -4 4 -15 2 -23 -5 -13 -10 -15 -9 -8 3 4 8 1
7 -8 -4 -8 -10 -19 -15 -25 -11 -6 3 -11 2 -11 -2 0 -5 -19 -8 -42 -7 -35 1
-43 4 -43 20 0 10 -7 25 -15 32 -8 8 -10 11 -3 8 18 -9 22 18 4 32 -9 8 -11
11 -4 8 18 -9 22 18 4 32 -9 8 -11 11 -5 8 7 -3 14 1 18 9 3 8 0 15 -7 16 -8
0 -7 2 2 6 11 4 11 7 0 13 -10 7 -10 11 0 24 11 13 11 16 0 16 -11 0 -11 2 1
10 12 8 12 10 1 10 -11 0 -11 3 -1 15 10 12 10 15 -1 15 -8 1 -3 7 10 14 26
15 73 10 49 -5z m256 -248 c3 -5 -2 -15 -12 -22 -15 -12 -16 -12 -5 2 7 9 10
19 6 22 -3 4 -4 7 0 7 3 0 8 -4 11 -9z"/>
<path d="M4481 1511 c-8 -5 -9 -11 -3 -15 5 -3 12 1 16 9 6 17 6 18 -13 6z"/>
<path d="M4566 1622 c-3 -5 1 -9 9 -9 8 0 12 4 9 9 -3 4 -7 8 -9 8 -2 0 -6 -4
-9 -8z"/>
<path d="M5140 1611 c-9 -18 -32 -22 -46 -8 -9 9 -24 -1 -24 -16 0 -7 4 -6 10
3 6 9 10 10 10 3 0 -16 -17 -26 -25 -13 -8 13 -45 -6 -45 -23 0 -8 4 -7 11 3
9 13 10 13 6 0 -2 -9 -13 -14 -28 -12 -19 2 -21 1 -9 -7 13 -9 13 -12 1 -23
-12 -11 -12 -10 -6 2 8 13 7 13 -8 1 -17 -13 -24 -37 -9 -27 5 3 9 -2 9 -10 0
-8 -6 -13 -13 -10 -8 3 -16 1 -19 -4 -4 -6 0 -10 7 -10 8 0 9 -3 3 -8 -5 -4
-11 -11 -11 -17 -1 -5 -5 -21 -9 -34 -4 -14 -3 -21 2 -18 5 4 10 0 10 -8 0 -8
-4 -12 -9 -9 -4 3 -8 0 -8 -5 0 -6 6 -11 13 -11 8 0 7 -4 -3 -10 -13 -9 -13
-10 0 -10 13 0 13 -1 0 -10 -12 -8 -12 -10 5 -10 17 0 17 -2 5 -10 -8 -5 -10
-10 -4 -10 7 0 15 -7 18 -16 3 -8 2 -12 -4 -9 -6 3 -7 -1 -4 -9 3 -9 11 -13
18 -9 6 4 5 -1 -2 -10 -12 -14 -11 -16 7 -12 14 2 21 -1 21 -11 0 -8 -4 -12
-10 -9 -5 3 -10 1 -10 -6 0 -6 8 -9 20 -6 11 3 20 1 20 -5 0 -5 7 -16 15 -24
11 -11 15 -12 15 -3 0 9 4 8 13 -2 6 -8 20 -21 30 -28 15 -12 17 -12 10 5 -6
16 -4 17 9 7 8 -7 18 -10 21 -6 4 3 10 -2 14 -12 6 -18 7 -18 14 1 7 16 8 17
8 2 1 -14 5 -16 26 -8 16 6 26 6 31 -1 4 -8 9 -7 15 2 7 12 9 12 9 0 0 -11 3
-11 15 -1 10 8 15 9 15 2 0 -6 7 -9 15 -6 8 4 12 10 9 15 -3 5 0 9 6 9 6 0 13
-7 17 -15 4 -12 11 -8 28 17 16 23 20 37 13 45 -6 7 -14 11 -18 8 -5 -3 -12
-1 -15 5 -4 6 -3 10 2 9 20 -4 34 2 28 12 -4 5 -17 9 -28 7 -12 -1 -28 1 -34
5 -8 5 -13 3 -13 -3 0 -6 -4 -9 -9 -5 -5 3 -12 1 -15 -3 -6 -10 -37 -9 -78 3
-17 4 -25 12 -21 19 4 6 0 5 -9 -2 -13 -10 -18 -10 -24 -1 -5 8 -3 9 6 4 9 -6
11 -4 6 4 -5 7 -14 10 -21 7 -19 -7 -27 5 -13 21 6 8 7 13 2 12 -5 -1 -16 -1
-23 0 -12 1 -12 4 -3 13 7 7 12 17 12 23 0 5 -4 4 -9 -3 -7 -11 -9 -11 -14 2
-3 8 -2 18 3 21 5 3 6 20 3 39 -3 19 -1 36 6 40 6 4 11 13 11 19 0 7 -4 6 -10
-3 -7 -11 -10 -12 -10 -2 0 8 9 16 21 19 16 4 17 8 7 14 -9 6 -6 9 12 9 18 0
21 3 12 9 -11 7 -11 9 1 14 8 3 19 1 25 -5 6 -6 12 -6 17 3 5 7 4 10 -2 6 -6
-4 -13 -1 -16 6 -3 8 5 12 23 12 16 0 26 -4 23 -10 -2 -5 3 -1 12 10 15 19 17
19 29 3 13 -18 32 -26 22 -10 -3 5 2 9 10 9 8 0 13 -6 10 -13 -3 -8 0 -16 6
-20 7 -5 8 -2 3 6 -6 9 -2 10 15 5 17 -5 21 -4 16 6 -4 8 0 5 8 -5 12 -15 16
-16 17 -5 1 8 0 19 -1 24 -1 6 -3 17 -3 25 0 8 -5 19 -11 23 -6 5 0 5 14 1 21
-6 23 -5 13 8 -7 8 -9 19 -5 24 4 4 -2 2 -12 -6 -11 -8 -17 -10 -13 -3 4 6 3
14 -3 18 -5 3 -10 1 -10 -6 0 -8 -6 -6 -18 4 -14 13 -21 14 -30 5 -9 -9 -12
-9 -12 2 0 11 -3 11 -12 2 -14 -14 -32 -16 -24 -4 8 14 -40 8 -57 -6 -12 -10
-17 -10 -23 -1 -4 8 -3 9 4 5 7 -4 12 -2 12 3 0 18 -19 12 -30 -8z m-50 -252
c0 -5 -4 -9 -8 -9 -5 0 -9 7 -9 15 0 8 4 12 9 9 4 -3 8 -9 8 -15z m290 -183
c0 -3 -4 -8 -10 -11 -5 -3 -10 -1 -10 4 0 6 5 11 10 11 6 0 10 -2 10 -4z"/>
<path d="M5435 1621 c6 -11 4 -13 -10 -7 -15 5 -16 4 -6 -8 9 -10 9 -16 1 -21
-8 -5 -8 -11 1 -21 8 -10 8 -14 0 -14 -6 0 -11 -16 -11 -36 0 -25 -4 -33 -12
-28 -7 4 -2 -7 11 -24 23 -33 19 -45 -6 -14 -8 9 -11 11 -7 3 4 -8 10 -32 14
-53 6 -29 5 -36 -5 -28 -8 7 -11 5 -10 -8 0 -9 4 -22 7 -28 8 -12 5 -34 -6
-53 -7 -10 -6 -12 4 -6 10 6 12 1 8 -19 -3 -14 -1 -26 4 -26 5 0 6 -6 2 -12
-6 -9 -3 -9 9 0 14 12 16 11 12 -7 -2 -12 0 -21 5 -21 5 0 11 -9 15 -19 6 -21
36 -38 31 -18 -1 7 -1 8 2 4 2 -5 15 -12 29 -18 16 -6 22 -13 17 -21 -6 -10
-5 -10 7 -1 12 10 18 10 29 0 10 -9 11 -9 6 1 -4 6 -2 12 3 12 6 0 11 -5 11
-10 0 -7 6 -7 19 0 14 7 22 7 26 0 5 -8 12 -7 23 2 13 11 14 11 8 0 -7 -11 -4
-12 11 -3 11 6 23 7 27 4 3 -3 6 1 6 10 0 9 5 17 11 17 5 0 8 -4 5 -8 -2 -4 0
-14 5 -22 8 -12 9 -11 7 5 -2 14 2 20 14 19 10 -1 17 1 16 5 0 3 0 13 1 21 1
12 3 12 10 2 6 -10 10 -6 15 14 5 19 10 24 15 15 6 -9 10 -7 14 8 3 12 1 19
-4 15 -5 -3 -6 2 -3 10 3 9 11 13 18 9 6 -4 4 1 -4 12 -17 21 -17 22 7 42 10
8 12 12 6 8 -7 -3 -13 -2 -13 2 0 5 6 15 13 22 10 11 9 13 -4 8 -14 -5 -16 1
-14 34 2 22 8 46 15 54 8 10 8 15 -1 21 -8 5 -9 3 -4 -6 5 -8 4 -11 -3 -7 -13
9 -10 30 8 53 13 16 13 17 -2 11 -10 -3 -18 -4 -18 0 0 3 8 12 18 20 13 11 13
14 2 10 -12 -4 -16 3 -15 28 0 18 3 31 7 29 4 -2 10 1 14 7 4 8 3 9 -4 5 -7
-4 -12 -2 -12 4 0 6 -4 8 -10 5 -5 -3 -10 -1 -10 4 0 6 5 11 12 11 6 0 9 2 6
5 -7 7 -39 -5 -34 -14 2 -3 -8 -7 -22 -7 -15 -1 -21 1 -14 3 19 7 14 19 -7 19
-11 0 -17 -5 -14 -10 4 -5 -3 -7 -15 -4 -12 4 -20 2 -17 -2 3 -5 2 -10 -2 -13
-5 -2 -3 -3 3 -1 15 3 9 -43 -8 -63 -7 -9 -8 -14 -2 -10 7 4 15 0 18 -9 3 -8
2 -12 -4 -9 -12 7 -9 -23 4 -44 6 -10 5 -12 -2 -7 -16 10 -15 -7 1 -23 10 -11
9 -12 -1 -7 -10 6 -11 1 -6 -20 5 -18 3 -25 -4 -20 -6 3 -9 -1 -8 -11 2 -9 8
-19 15 -21 8 -3 6 -9 -6 -19 -10 -8 -13 -12 -7 -9 7 3 14 -1 17 -9 4 -9 1 -12
-8 -9 -10 4 -13 -2 -11 -21 3 -19 0 -25 -10 -21 -8 3 -14 1 -14 -3 0 -5 6 -12
13 -14 11 -5 -17 -11 -35 -8 -4 0 -5 -6 -2 -14 4 -8 2 -15 -4 -15 -5 0 -13 7
-16 16 -5 13 -9 14 -21 4 -12 -10 -15 -10 -15 0 0 10 -3 10 -15 0 -14 -11 -14
-10 -5 15 9 24 8 26 -4 16 -11 -9 -15 -8 -19 3 -4 9 -1 18 5 22 7 5 5 11 -6
20 -16 11 -15 13 6 29 13 10 16 15 7 12 -9 -3 -22 -1 -30 4 -11 7 -10 9 6 10
11 0 14 3 8 6 -7 2 -13 9 -13 14 0 6 4 8 9 4 5 -3 13 -1 16 5 4 6 1 9 -6 8 -6
-2 -12 7 -14 19 -1 18 1 20 12 11 11 -8 12 -7 7 6 -3 9 -10 16 -15 16 -5 0 -9
5 -9 11 0 5 6 7 13 3 7 -5 6 0 -3 11 -8 10 -10 16 -3 12 6 -4 15 -3 18 3 4 6
1 9 -6 8 -7 -2 -14 6 -16 17 -3 15 -2 16 5 7 7 -11 10 -11 15 2 4 9 1 15 -5
13 -6 -1 -13 4 -16 12 -2 8 0 11 6 7 7 -4 9 3 6 21 -5 26 -24 57 -24 39 0 -5
-8 -2 -17 5 -9 8 -14 9 -10 2 11 -18 -26 -21 -47 -4 -15 12 -17 12 -11 2z m-8
-277 c-3 -3 -12 -4 -19 -1 -8 3 -5 6 6 6 11 1 17 -2 13 -5z"/>
<path d="M5897 1623 c-2 -5 -4 -20 -3 -34 1 -16 -3 -25 -10 -22 -6 2 -11 -3
-11 -11 0 -8 4 -13 9 -10 12 8 10 -40 -3 -53 -8 -8 -7 -13 2 -18 8 -6 10 -4 4
5 -5 8 -4 11 3 6 12 -7 5 -37 -12 -48 -7 -5 -7 -8 2 -8 6 0 12 -7 12 -16 0 -8
-4 -13 -8 -10 -5 3 -9 -1 -9 -9 0 -8 4 -12 9 -9 14 9 9 -39 -7 -56 -13 -14
-13 -17 0 -17 8 0 11 5 8 10 -3 6 -1 7 6 3 9 -6 9 -11 0 -22 -10 -12 -8 -13 7
-8 19 7 19 6 0 -8 -12 -9 -15 -17 -8 -21 5 -4 8 -16 5 -27 -3 -11 -9 -17 -14
-14 -14 9 -10 -6 6 -22 11 -11 12 -21 5 -33 -5 -10 -6 -21 -3 -25 3 -3 0 -6
-7 -6 -7 0 -10 -3 -7 -6 4 -4 14 -1 24 7 11 9 14 10 9 2 -4 -8 -2 -13 4 -13 6
0 8 -5 4 -12 -4 -7 -3 -8 5 -4 6 4 9 11 6 16 -6 9 21 7 31 -2 3 -4 13 -4 22
-1 9 4 13 2 9 -4 -3 -5 0 -10 8 -10 8 0 12 4 10 8 -3 4 2 9 10 13 9 3 12 12 8
22 -5 13 -3 15 8 9 11 -7 11 -5 -1 10 -8 10 -14 20 -12 22 1 1 1 4 1 6 -6 11
-3 74 3 71 5 -3 11 1 14 9 3 9 18 14 37 14 18 0 43 5 56 12 14 8 21 9 17 2 -4
-6 -3 -11 2 -11 6 0 13 7 16 15 3 9 14 15 23 13 12 -2 18 3 17 14 -1 10 2 15
7 12 5 -3 17 0 26 5 11 6 13 11 5 11 -7 0 -10 5 -7 10 4 6 11 7 17 4 7 -5 9 0
6 14 -4 12 -3 20 1 18 4 -3 13 -1 21 5 8 5 10 9 4 9 -6 0 -10 17 -8 39 1 28
-2 38 -11 35 -8 -4 -11 3 -10 20 2 15 -1 24 -6 20 -5 -3 -7 -11 -3 -17 3 -7
-4 -1 -15 13 -11 14 -18 32 -15 40 4 12 2 12 -7 3 -9 -9 -16 -7 -30 10 -16 19
-20 20 -39 9 -12 -8 -20 -10 -17 -5 3 5 2 15 -4 23 -7 13 -9 13 -9 0 0 -9 -9
-16 -19 -16 -11 0 -17 4 -15 8 3 4 2 8 -3 9 -4 0 -18 2 -30 3 -12 1 -20 -1
-17 -6 4 -5 13 -7 21 -4 8 3 11 2 8 -3 -6 -11 -52 -8 -63 4 -4 4 -1 5 7 0 10
-6 12 -4 7 4 -6 9 -11 9 -22 0 -8 -6 -25 -9 -39 -7 -14 3 -25 1 -25 -4 0 -5
-5 -6 -10 -3 -6 4 -8 11 -5 16 4 5 4 9 1 9 -3 0 -7 -3 -9 -7z m273 -31 c0 -5
-7 -9 -15 -9 -8 0 -12 4 -9 9 3 4 9 8 15 8 5 0 9 -4 9 -8z m-100 -76 c0 -5 3
-6 6 -3 10 10 47 -42 41 -57 -3 -7 -1 -18 4 -23 14 -14 -15 -42 -38 -39 -10 2
-21 -2 -25 -8 -5 -7 -8 -4 -8 7 0 10 -5 15 -10 12 -6 -4 -7 -12 -3 -18 4 -7
-1 -6 -10 2 -13 10 -15 17 -6 27 9 11 8 14 -1 14 -9 0 -7 7 6 21 10 11 14 20
9 19 -24 -5 -27 1 -9 15 19 15 19 15 -1 9 -16 -5 -17 -4 -5 5 8 6 11 11 7 11
-5 0 -6 4 -2 9 7 12 45 10 45 -3z m55 -25 c-6 -5 -25 10 -25 20 0 5 6 4 14 -3
8 -7 12 -15 11 -17z m140 -11 c3 -5 1 -10 -4 -10 -6 0 -11 5 -11 10 0 6 2 10
4 10 3 0 8 -4 11 -10z m5 -34 c0 -3 -4 -8 -10 -11 -5 -3 -10 -1 -10 4 0 6 5
11 10 11 6 0 10 -2 10 -4z"/>
<path d="M6031 1517 c2 -1 13 -9 24 -17 19 -14 19 -14 6 3 -7 9 -18 17 -24 17
-6 0 -8 -1 -6 -3z"/>
<path d="M6099 1413 c-13 -16 -12 -17 4 -4 16 13 21 21 13 21 -2 0 -10 -8 -17
-17z"/>
<path d="M1891 1604 c7 -8 4 -11 -8 -10 -10 0 -22 6 -26 11 -5 6 -7 4 -4 -5 2
-8 9 -14 14 -13 5 1 10 -4 10 -12 0 -8 -3 -12 -6 -10 -4 2 -14 -3 -24 -10 -12
-8 -14 -15 -8 -20 6 -3 11 -1 11 4 0 6 5 11 11 11 8 0 7 -5 -1 -15 -7 -9 -20
-13 -29 -10 -11 3 -10 0 3 -10 12 -9 15 -15 7 -15 -9 0 -11 -8 -8 -21 4 -17 3
-18 -9 -8 -12 10 -13 9 -8 -6 5 -13 4 -16 -5 -10 -10 6 -11 3 -2 -13 7 -14 8
-23 1 -27 -6 -4 -7 -11 -4 -17 4 -7 2 -8 -4 -4 -7 4 -14 -4 -18 -21 -4 -15
-12 -31 -18 -35 -7 -5 -6 -8 3 -8 11 0 10 -4 -5 -16 -17 -14 -17 -15 -1 -10
11 3 16 2 12 -4 -3 -6 -13 -10 -21 -10 -17 0 -19 -16 -2 -26 7 -5 8 -3 3 6 -5
9 -4 11 4 6 15 -10 3 -29 -15 -22 -7 3 -16 0 -20 -6 -4 -7 -3 -8 4 -4 7 4 12
1 12 -9 0 -9 -4 -14 -9 -10 -5 3 -13 0 -17 -6 -4 -8 -3 -9 4 -5 7 4 12 1 12
-9 0 -10 -5 -13 -12 -9 -8 5 -7 0 2 -11 14 -17 13 -18 -4 -12 -17 7 -17 6 -5
-10 12 -15 12 -16 -4 -10 -16 6 -16 5 -1 -18 18 -28 29 -33 21 -11 -4 10 -1
13 9 9 7 -3 14 -8 14 -12 0 -4 7 -8 15 -8 8 0 11 5 8 10 -3 5 0 7 8 5 8 -3 22
-1 33 4 10 6 16 6 13 1 -3 -5 3 -9 13 -9 11 0 17 2 15 5 -3 2 1 11 8 20 11 14
10 15 -7 1 -19 -15 -19 -14 -2 13 16 24 36 41 22 18 -5 -7 12 -8 47 -2 5 0 5
5 2 11 -3 6 1 7 9 4 9 -3 16 -10 16 -16 0 -5 5 -6 10 -3 6 4 7 12 3 18 -3 7 4
3 16 -7 15 -14 20 -15 16 -5 -4 10 1 15 14 15 11 0 17 -4 15 -8 -3 -5 2 -11
10 -14 9 -3 14 -9 12 -13 -2 -3 2 -17 11 -31 8 -14 12 -17 9 -7 -5 15 -3 16
15 7 11 -6 17 -16 13 -23 -4 -7 2 -4 13 6 13 11 23 14 27 8 9 -14 37 -2 30 13
-3 6 2 2 10 -8 15 -18 16 -18 16 -2 0 9 4 15 8 12 16 -10 10 33 -6 45 -14 11
-15 11 -4 -1 6 -8 12 -18 12 -24 0 -5 -6 -1 -14 9 -10 15 -11 25 -4 39 8 15 7
18 -5 13 -11 -4 -14 0 -12 19 1 13 -2 24 -8 24 -5 0 -7 9 -4 19 3 15 1 18 -11
14 -10 -4 -13 -2 -8 5 3 6 2 14 -4 17 -8 5 -8 11 0 20 8 10 8 15 -1 21 -8 5
-9 3 -4 -6 5 -9 4 -11 -4 -6 -9 6 -9 11 1 24 8 9 8 13 2 9 -7 -4 -14 0 -17 7
-3 8 -1 17 6 20 7 2 3 5 -8 5 -17 1 -17 3 -5 11 10 6 11 10 3 10 -7 0 -13 7
-13 15 0 8 -4 15 -10 15 -5 0 -10 5 -10 11 0 5 4 8 8 5 5 -3 9 1 9 9 0 8 -4
12 -9 9 -4 -3 -8 0 -8 6 0 6 -5 8 -12 4 -9 -5 -9 -2 1 9 7 9 9 17 3 17 -16 0
-24 33 -10 43 9 6 6 7 -9 4 -18 -4 -21 -1 -17 22 2 14 1 21 -3 15 -12 -16 -42
-24 -49 -13 -3 6 -20 7 -37 4 -22 -4 -28 -3 -18 3 11 8 8 10 -12 9 -18 -2 -22
-5 -16 -13z m75 -171 c-2 -2 2 -16 10 -31 10 -20 11 -29 1 -41 -10 -12 -9 -13
2 -6 11 6 13 3 9 -13 -4 -15 0 -25 10 -32 10 -5 12 -10 5 -10 -7 0 -13 -7 -13
-16 0 -8 -5 -12 -10 -9 -6 4 -7 12 -3 18 4 7 0 6 -10 -2 -9 -7 -17 -10 -17 -5
0 5 -5 2 -10 -6 -8 -12 -10 -12 -10 5 0 17 -2 17 -10 5 -7 -12 -10 -12 -10 -1
0 8 -6 11 -16 7 -14 -5 -15 -4 -5 8 7 8 9 21 5 28 -5 9 -2 8 12 -2 10 -8 16
-10 12 -6 -4 5 -2 16 5 24 8 11 9 14 0 9 -8 -5 -11 0 -10 13 1 19 10 25 32 20
6 -1 6 2 2 7 -5 4 -13 9 -18 9 -5 1 -12 2 -16 3 -4 0 3 8 15 17 13 9 19 20 15
27 -4 7 1 6 10 -2 10 -8 16 -16 13 -18z m-59 -238 c0 -8 -4 -15 -9 -15 -10 0
-11 14 -1 23 9 10 10 9 10 -8z"/>
<path d="M1946 1432 c-2 -4 2 -16 10 -27 8 -10 14 -14 14 -8 0 7 -5 15 -10 18
-6 4 -8 11 -5 16 4 5 4 9 1 9 -3 0 -7 -3 -10 -8z"/>
<path d="M1096 1601 c-3 -5 1 -11 9 -14 9 -4 12 -1 8 9 -6 16 -10 17 -17 5z"/>
<path d="M2960 1600 c-9 -6 -10 -10 -3 -10 6 0 15 5 18 10 8 12 4 12 -15 0z"/>
<path d="M5394 1573 c0 -12 4 -23 9 -23 5 0 7 6 4 14 -3 7 -1 18 4 23 6 6 5
10 -4 10 -7 0 -13 -11 -13 -24z"/>
<path d="M4686 1578 c3 -5 10 -6 15 -3 13 9 11 12 -6 12 -8 0 -12 -4 -9 -9z"/>
<path d="M5690 1559 c0 -5 5 -7 10 -4 6 3 10 8 10 11 0 2 -4 4 -10 4 -5 0 -10
-5 -10 -11z"/>
<path d="M5836 1553 c-6 -14 -5 -15 5 -6 7 7 10 15 7 18 -3 3 -9 -2 -12 -12z"/>
<path d="M5365 1551 c-6 -11 13 -26 22 -17 4 3 1 6 -6 6 -7 0 -9 5 -6 10 3 6
4 10 1 10 -3 0 -7 -4 -11 -9z"/>
<path d="M899 1483 c-12 -16 -12 -17 2 -6 9 7 20 9 24 5 5 -4 5 -1 1 6 -9 16
-11 15 -27 -5z"/>
<path d="M990 1409 c0 -5 5 -7 10 -4 6 3 10 8 10 11 0 2 -4 4 -10 4 -5 0 -10
-5 -10 -11z"/>
<path d="M1650 1409 c0 -5 5 -7 10 -4 6 3 10 8 10 11 0 2 -4 4 -10 4 -5 0 -10
-5 -10 -11z"/>
<path d="M1705 1400 c-3 -5 -1 -10 4 -10 6 0 11 5 11 10 0 6 -2 10 -4 10 -3 0
-8 -4 -11 -10z"/>
<path d="M5836 1393 c-6 -14 -5 -15 5 -6 7 7 10 15 7 18 -3 3 -9 -2 -12 -12z"/>
<path d="M2780 1379 c0 -5 5 -7 10 -4 6 3 10 8 10 11 0 2 -4 4 -10 4 -5 0 -10
-5 -10 -11z"/>
<path d="M2911 1366 c-9 -11 -9 -16 1 -22 7 -4 10 -4 6 1 -4 4 -3 14 3 22 6 7
9 13 6 13 -2 0 -10 -6 -16 -14z"/>
<path d="M5830 1360 c0 -5 5 -10 11 -10 5 0 7 5 4 10 -3 6 -8 10 -11 10 -2 0
-4 -4 -4 -10z"/>
<path d="M2583 1288 c-1 -11 1 -16 5 -12 4 5 11 12 15 15 5 3 2 9 -5 12 -9 3
-14 -3 -15 -15z"/>
<path d="M3930 1300 c-9 -6 -10 -10 -3 -10 6 0 15 5 18 10 8 12 4 12 -15 0z"/>
<path d="M1565 1270 c-3 -6 1 -7 9 -4 18 7 21 14 7 14 -6 0 -13 -4 -16 -10z"/>
<path d="M4100 1240 c-9 -6 -10 -10 -3 -10 6 0 15 5 18 10 8 12 4 12 -15 0z"/>
<path d="M5246 1232 c-3 -5 1 -9 9 -9 8 0 12 4 9 9 -3 4 -7 8 -9 8 -2 0 -6 -4
-9 -8z"/>
<path d="M1139 1203 c-13 -16 -12 -17 4 -4 16 13 21 21 13 21 -2 0 -10 -8 -17
-17z"/>
<path d="M2350 1186 c0 -2 7 -7 16 -10 8 -3 12 -2 9 4 -6 10 -25 14 -25 6z"/>
<path d="M2016 1167 c3 -10 9 -15 12 -12 3 3 0 11 -7 18 -10 9 -11 8 -5 -6z"/>
<path d="M2853 1158 c-11 -14 -14 -52 -4 -42 6 5 7 9 10 35 0 5 6 7 13 3 7 -4
8 -3 4 4 -9 15 -11 15 -23 0z"/>
<path d="M2750 1119 c0 -5 5 -7 10 -4 6 3 10 8 10 11 0 2 -4 4 -10 4 -5 0 -10
-5 -10 -11z"/>
<path d="M1226 986 c7 -18 -14 -19 -29 -1 -5 6 -7 0 -4 -13 4 -17 2 -21 -6
-14 -19 14 -72 -2 -61 -19 3 -5 -2 -9 -11 -9 -9 0 -13 -4 -10 -10 3 -5 0 -7
-8 -4 -8 3 -18 0 -23 -7 -5 -8 -3 -10 6 -4 9 5 11 4 6 -3 -4 -7 -14 -12 -23
-12 -9 0 -13 -6 -10 -14 3 -8 -2 -17 -11 -21 -13 -5 -14 -8 -3 -14 9 -6 7 -10
-10 -14 -18 -5 -20 -9 -10 -21 9 -11 9 -16 0 -22 -8 -5 -9 -3 -4 7 8 12 6 12
-8 0 -18 -15 -23 -26 -7 -16 6 3 10 -1 10 -9 0 -9 -6 -16 -12 -16 -9 0 -8 -4
2 -10 13 -9 13 -11 0 -20 -8 -5 -10 -10 -4 -10 7 0 15 -7 18 -16 3 -8 2 -13
-3 -10 -4 3 -6 -11 -5 -32 6 -57 7 -61 14 -57 3 2 12 0 20 -6 13 -7 13 -9 0
-9 -8 -1 -4 -6 9 -11 16 -6 22 -15 18 -28 -3 -15 -1 -18 11 -14 10 4 13 2 8
-5 -4 -7 -2 -12 4 -12 6 0 8 -5 4 -12 -5 -7 -3 -8 5 -3 12 7 55 -28 45 -38 -3
-2 6 -3 20 -2 19 2 23 -1 19 -13 -5 -12 -2 -14 11 -9 11 5 26 -2 42 -18 14
-14 38 -27 55 -29 30 -3 72 -33 64 -46 -3 -4 1 -13 8 -19 10 -8 14 -7 14 4 0
8 -5 11 -10 8 -6 -3 -7 -1 -3 5 10 17 26 15 26 -4 0 -8 5 -12 10 -9 6 3 10 0
10 -7 0 -10 3 -9 11 2 9 12 10 10 5 -9 -3 -17 -2 -21 6 -13 12 12 58 -4 58
-21 0 -5 7 -7 14 -4 11 4 13 1 9 -11 -6 -14 -4 -15 9 -4 19 15 34 0 22 -20 -5
-9 -2 -9 9 1 14 11 17 11 18 0 1 -8 1 -18 0 -22 -1 -4 8 -3 19 3 17 9 20 8 20
-7 0 -15 2 -16 10 -3 8 12 10 12 10 -5 0 -17 2 -17 10 -5 5 8 10 11 10 6 0 -5
7 -3 15 4 14 11 14 15 -2 33 -10 11 -12 17 -5 13 6 -4 12 -2 12 3 0 6 -6 11
-12 11 -9 0 -8 4 2 10 11 7 11 10 2 10 -7 0 -11 4 -7 9 3 5 0 13 -6 17 -7 4
-9 3 -5 -4 3 -6 2 -13 -3 -16 -11 -7 -9 13 3 34 5 8 5 11 1 7 -5 -4 -15 3 -23
15 -11 19 -12 20 -8 3 6 -19 6 -20 -9 -1 -8 10 -12 23 -9 27 3 5 -2 6 -10 3
-9 -3 -16 -1 -16 6 0 6 -4 8 -10 5 -5 -3 -10 0 -10 7 0 9 -3 9 -10 -2 -8 -13
-10 -12 -10 3 0 10 -4 15 -10 12 -5 -3 -10 -1 -10 6 0 8 -5 8 -17 -2 -10 -7
-15 -10 -11 -5 4 5 0 15 -8 23 -8 8 -11 19 -8 25 4 7 2 8 -4 4 -6 -4 -10 -12
-8 -19 1 -7 1 -9 -1 -4 -3 4 -10 7 -17 7 -7 0 -18 10 -25 23 l-12 22 5 -23 c2
-12 0 -20 -5 -17 -5 4 -8 17 -7 30 2 20 5 22 23 13 18 -10 18 -9 7 5 -11 13
-10 15 13 13 22 -3 23 -1 13 12 -10 13 -10 14 0 8 7 -4 12 -2 12 6 0 9 3 9 10
-2 8 -13 10 -12 10 4 0 16 2 17 17 5 15 -13 15 -12 4 8 -10 20 -9 22 5 16 11
-4 15 -2 11 4 -4 6 4 18 18 27 15 10 22 22 19 31 -4 8 -1 15 5 15 6 0 11 5 11
11 0 5 -4 7 -10 4 -6 -3 -7 1 -4 10 4 9 12 14 19 12 6 -3 12 1 12 9 0 9 -7 13
-16 9 -11 -3 -10 0 3 10 11 8 14 15 8 15 -7 0 -12 5 -12 11 0 6 6 7 13 2 7 -4
6 3 -4 17 -16 25 -15 55 2 44 15 -9 10 3 -8 17 -14 12 -16 12 -8 0 5 -10 4
-12 -4 -7 -9 6 -9 11 0 22 9 11 7 14 -12 15 l-24 1 25 8 c17 5 19 8 8 9 -10 1
-18 6 -18 12 0 5 -4 7 -10 4 -6 -4 -7 1 -3 11 5 13 3 16 -10 11 -9 -3 -19 -1
-23 5 -4 7 -3 8 4 4 7 -4 12 -2 12 3 0 6 -8 11 -18 11 -11 0 -24 10 -31 23 -8
15 -10 16 -6 3 5 -16 3 -17 -10 -6 -8 7 -12 16 -9 21 3 5 2 9 -3 8 -4 -1 -10
0 -13 1 -3 1 -35 3 -72 4 -44 2 -68 -1 -68 -8 0 -6 -4 -4 -10 4 -5 8 -12 11
-16 7 -4 -4 -13 -2 -21 5 -11 8 -12 7 -7 -6z m193 -29 c0 -9 -2 -8 -6 1 -2 6
-10 9 -15 6 -7 -4 -8 -2 -4 5 9 13 26 5 25 -12z m-116 -90 c-3 -7 4 -3 17 8
20 17 22 17 17 3 -4 -13 -2 -15 10 -11 11 4 14 2 9 -5 -5 -8 2 -12 19 -12 15
0 24 -4 20 -10 -3 -5 -1 -10 4 -10 6 0 11 -7 11 -16 0 -8 4 -13 9 -10 5 3 11
-1 14 -9 4 -10 1 -12 -11 -8 -13 5 -12 1 5 -18 27 -30 28 -36 6 -57 -10 -9
-14 -14 -9 -9 18 13 25 8 21 -15 -3 -12 -11 -26 -20 -30 -17 -10 -20 -28 -4
-28 5 0 8 4 5 8 -3 5 2 9 10 9 11 0 7 -8 -11 -24 -14 -13 -22 -29 -19 -35 5
-8 1 -9 -11 -4 -16 6 -16 4 -4 -11 12 -15 12 -16 -3 -10 -13 4 -18 1 -18 -11
0 -9 -5 -24 -11 -32 -8 -12 -9 -9 -4 10 l7 25 -16 -22 c-9 -12 -22 -20 -30
-19 -20 3 -57 37 -51 47 3 4 1 10 -4 13 -5 4 -13 1 -17 -5 -5 -8 -3 -9 6 -4 9
5 11 4 6 -4 -9 -15 -26 -5 -26 16 0 10 -6 13 -16 9 -8 -3 -12 -2 -9 4 3 6 1
10 -4 10 -6 0 -11 4 -11 10 0 5 -10 21 -22 35 -21 24 -30 96 -15 112 4 3 2 14
-4 24 -8 15 -6 17 8 12 10 -3 15 -3 11 2 -4 4 0 14 10 22 9 8 11 12 5 8 -8 -3
-13 0 -13 8 0 11 7 13 22 9 14 -3 19 -1 14 6 -3 6 -2 13 4 17 5 3 10 0 10 -7
0 -8 5 -6 11 5 8 13 14 15 30 7 15 -9 21 -7 25 5 3 8 10 12 15 9 5 -3 6 -11 2
-17z m-280 -222 c-7 -21 -12 -19 -10 4 0 11 5 18 9 15 4 -3 5 -11 1 -19z m647
-420 c0 -12 -19 -12 -23 0 -4 9 -1 12 9 8 7 -3 14 -7 14 -8z"/>
<path d="M1420 739 c0 -5 5 -7 10 -4 6 3 10 8 10 11 0 2 -4 4 -10 4 -5 0 -10
-5 -10 -11z"/>
<path d="M1280 546 c0 -2 7 -9 15 -16 13 -11 14 -10 9 4 -5 14 -24 23 -24 12z"/>
<path d="M2305 946 c-9 -12 -13 -16 -10 -9 3 6 1 15 -5 18 -6 4 -10 3 -9 -2 3
-17 -1 -33 -8 -32 -29 5 -50 -26 -47 -68 1 -15 -3 -20 -14 -15 -10 3 -13 1 -8
-6 12 -19 -12 -14 -24 6 -11 16 -11 16 -6 -2 4 -13 2 -17 -7 -13 -8 3 -20 1
-28 -4 -12 -7 -12 -9 0 -9 11 0 11 -3 0 -17 -11 -13 -11 -17 -1 -20 6 -3 12
-9 12 -14 0 -6 -4 -8 -8 -5 -4 2 -8 -4 -8 -14 0 -10 3 -17 7 -14 4 2 9 1 12
-3 2 -5 2 -3 1 4 -2 7 3 10 11 6 8 -3 13 -9 10 -13 -10 -16 20 -17 39 -1 16
13 18 13 11 1 -14 -22 -15 -40 -2 -40 5 0 7 -3 4 -7 -4 -3 -2 -12 4 -19 7 -8
6 -14 -2 -20 -8 -4 -9 -3 -5 4 4 7 2 12 -4 12 -6 0 -8 -11 -6 -27 3 -15 1 -32
-5 -39 -8 -10 -5 -12 13 -9 22 4 22 4 4 -10 -12 -9 -15 -15 -7 -15 10 0 11 -3
2 -14 -9 -11 -9 -16 0 -22 8 -5 9 -3 4 6 -5 8 -4 11 3 6 6 -4 9 -13 5 -21 -3
-8 1 -15 8 -15 7 0 9 -3 6 -6 -4 -4 -13 -1 -22 6 -13 11 -14 10 -9 -4 3 -9 12
-16 19 -16 8 0 17 -5 21 -12 5 -7 2 -9 -7 -4 -8 4 -2 -4 13 -17 15 -14 24 -28
20 -31 -3 -4 2 -4 13 0 18 7 19 6 5 -11 -14 -17 -14 -18 7 -7 21 12 57 6 49
-7 -3 -4 4 -8 15 -8 10 -1 19 2 19 6 0 4 7 8 15 8 8 0 15 -4 15 -9 0 -5 9 -4
20 2 14 8 20 8 20 0 0 -6 5 -8 10 -5 6 4 8 10 6 14 -3 3 4 7 14 7 13 0 16 -4
9 -12 -11 -13 14 -13 45 1 13 6 21 5 24 -3 2 -7 8 -12 13 -12 6 0 8 4 5 9 -3
5 5 11 19 13 20 4 23 3 14 -8 -14 -17 -5 -18 22 -4 13 8 19 7 19 0 0 -8 6 -8
20 0 12 6 20 7 20 1 0 -13 24 -8 44 8 14 12 16 12 11 0 -4 -10 2 -15 17 -16
18 -2 20 0 8 7 -12 8 -10 10 8 10 16 0 21 -4 16 -12 -4 -7 3 -4 15 6 15 14 20
15 16 5 -4 -10 2 -15 17 -16 16 -2 19 0 9 6 -9 6 -4 10 18 13 22 3 28 1 21 -7
-6 -7 -3 -11 10 -12 11 -1 22 2 25 8 4 5 11 9 16 9 6 0 8 -4 5 -8 -2 -4 5 -9
17 -9 15 -2 18 0 8 6 -9 6 -4 10 18 13 22 3 28 1 21 -7 -7 -8 -5 -12 5 -12 8
0 15 4 15 8 0 4 7 10 16 13 14 5 15 4 4 -9 -11 -13 -10 -14 4 -9 9 3 16 9 16
13 0 3 9 12 20 18 17 11 19 10 14 -5 -5 -16 -5 -16 6 1 6 10 16 14 23 10 7 -4
6 1 -2 10 -12 16 -12 17 5 10 17 -6 18 -5 4 12 -14 17 -14 18 6 7 19 -10 21
-9 18 13 -1 14 2 23 6 20 5 -3 11 4 15 15 4 11 10 18 15 15 5 -3 11 -1 14 4 4
5 -3 13 -15 16 -11 4 -18 9 -16 12 3 2 16 -1 29 -8 12 -7 27 -12 31 -11 5 1 6
-2 2 -8 -3 -6 -11 -8 -16 -5 -5 4 -9 -1 -9 -9 0 -9 4 -16 9 -16 13 0 4 -52
-11 -61 -12 -8 -4 -13 14 -10 4 0 5 -5 2 -13 -3 -7 3 -19 12 -27 12 -9 15 -10
10 -2 -4 8 -2 13 8 13 8 0 17 -6 19 -12 4 -10 6 -10 6 0 1 6 6 12 12 12 5 0 8
-4 5 -8 -2 -4 4 -9 15 -9 10 -1 19 3 19 8 0 6 -6 7 -12 3 -8 -4 -10 -3 -5 2 5
5 13 10 18 10 5 1 14 2 20 3 5 0 7 6 4 11 -4 6 -12 8 -18 4 -7 -3 -4 1 6 9 19
16 24 32 5 21 -7 -4 -8 -3 -4 5 4 6 2 19 -6 28 -10 13 -10 15 0 9 9 -6 12 -1
10 18 -2 14 -7 28 -10 32 -4 3 1 18 10 32 9 15 11 23 5 19 -9 -5 -13 -2 -13 8
0 9 5 13 11 9 8 -4 8 -1 1 12 -10 20 -5 45 10 55 5 3 2 9 -7 12 -10 5 -14 3
-9 -5 4 -7 3 -8 -4 -4 -17 10 -15 15 11 26 16 6 18 9 5 9 -11 1 -15 6 -12 15
7 18 12 107 5 101 -2 -3 -13 3 -25 12 -17 16 -16 13 4 -17 l23 -35 -31 29
c-18 17 -32 26 -32 20 0 -11 -57 -11 -68 1 -4 5 -2 5 5 1 6 -3 14 -2 17 3 7
11 -13 9 -32 -3 -7 -4 -16 -5 -19 -2 -4 3 -15 -2 -26 -11 -11 -10 -17 -13 -14
-7 4 7 -1 18 -10 25 -12 10 -14 10 -9 2 9 -15 -6 -17 -20 -3 -7 7 -18 3 -33
-11 -12 -12 -25 -18 -28 -15 -3 3 -13 0 -21 -7 -13 -10 -14 -9 -7 2 6 10 4 12
-4 7 -7 -5 -10 -15 -7 -23 3 -8 2 -12 -3 -8 -5 3 -16 -2 -24 -10 -9 -8 -19
-15 -24 -15 -4 0 -14 -14 -21 -30 -8 -17 -17 -28 -21 -25 -5 2 -8 -6 -7 -18 1
-12 -2 -25 -6 -28 -13 -9 -18 -49 -6 -49 6 0 5 -7 -3 -17 -8 -9 -9 -14 -3 -10
18 11 25 -21 9 -37 -11 -11 -12 -16 -2 -19 19 -8 -14 -28 -35 -21 -10 3 -18 1
-18 -5 0 -5 15 -8 33 -6 22 3 27 2 16 -5 -8 -5 -24 -7 -35 -6 -10 2 -26 -2
-34 -8 -13 -9 -13 -9 -3 5 11 13 9 15 -10 13 -12 -1 -28 -3 -35 -3 -7 -1 -10
-6 -7 -12 4 -6 -2 -5 -13 2 -12 7 -18 17 -16 21 3 4 0 8 -5 8 -6 0 -11 -7 -11
-16 0 -14 -2 -15 -17 -3 -14 12 -16 12 -8 0 6 -10 4 -13 -6 -9 -50 21 -49 21
-43 2 3 -12 3 -15 -3 -8 -4 6 -32 11 -60 11 -29 0 -60 6 -68 13 -18 15 -20 0
-2 -20 10 -12 9 -12 -3 -3 -8 6 -23 9 -33 8 -10 -2 -14 1 -11 7 4 6 1 8 -7 6
-8 -3 -13 -11 -11 -18 3 -11 0 -11 -12 0 -19 15 -21 24 -4 14 7 -4 8 -3 4 4
-4 6 -13 9 -21 6 -8 -4 -12 -11 -9 -16 4 -6 -3 -5 -15 2 -12 6 -19 15 -17 19
3 4 -1 8 -8 8 -9 0 -12 -7 -8 -16 5 -13 4 -14 -10 -1 -8 8 -13 21 -10 29 3 9
1 12 -6 7 -7 -4 -12 -3 -12 3 0 5 6 11 13 14 9 3 9 7 0 17 -9 10 -9 19 -2 33
8 13 8 17 1 13 -7 -4 -10 5 -10 22 1 16 -2 34 -6 40 -3 6 -2 13 4 17 6 4 8 10
6 14 -3 4 1 8 9 8 8 0 12 -3 10 -7 -2 -3 5 -6 15 -6 13 0 16 4 10 11 -7 8 -5
12 5 12 8 0 15 -5 15 -11 0 -6 5 -4 10 4 8 12 10 12 10 -5 0 -16 2 -17 9 -5 6
8 8 17 6 21 -3 3 6 5 19 4 33 -4 50 9 43 34 -3 13 1 25 11 32 13 8 11 9 -12 4
l-30 -6 25 21 c13 12 17 18 9 14 -23 -12 -61 -14 -54 -2 4 6 -1 6 -14 -1 -24
-13 -35 -14 -28 -3 2 4 -4 8 -14 8 -10 0 -16 -4 -14 -8 3 -4 -2 -5 -10 -2 -10
4 -16 1 -16 -7 0 -7 -3 -9 -6 -6 -4 4 -1 14 7 24 8 9 9 14 2 10 -17 -10 -28
13 -12 24 11 7 9 9 -6 9 -16 0 -17 2 -6 9 8 5 15 25 17 45 2 31 0 34 -13 21
-13 -13 -33 -12 -33 1 0 3 4 3 9 -1 5 -3 12 -2 15 3 11 19 -25 7 -39 -12z
m828 -119 c3 -8 -1 -14 -9 -14 -15 0 -18 9 -7 20 9 9 10 9 16 -6z m-26 -99
c-3 -8 -6 -5 -6 6 -1 11 2 17 5 13 3 -3 4 -12 1 -19z m59 10 c5 -7 3 -8 -6 -3
-9 5 -11 4 -6 -4 6 -9 11 -9 22 0 8 6 14 8 14 4 0 -4 8 -1 17 6 11 10 14 10 9
2 -4 -8 -2 -13 5 -13 8 0 7 -5 -2 -17 -12 -15 -12 -16 3 -10 12 4 15 2 11 -9
-3 -8 -8 -12 -11 -10 -3 3 -11 -2 -18 -12 -9 -12 -9 -21 -2 -29 7 -9 7 -13 -2
-13 -10 0 -10 -3 -1 -14 9 -11 9 -16 0 -22 -8 -4 -9 -3 -5 4 4 7 2 12 -3 12
-11 0 -13 -10 -14 -57 -1 -12 -3 -21 -6 -21 -19 2 -31 -3 -31 -13 0 -5 5 -7
12 -3 7 4 8 3 4 -4 -4 -6 -14 -8 -23 -5 -10 4 -14 2 -10 -4 4 -6 -2 -13 -13
-16 -11 -3 -19 -2 -18 2 2 18 -4 44 -9 34 -2 -7 -9 -13 -14 -13 -4 0 -5 7 -2
17 4 9 2 14 -3 11 -5 -4 -9 13 -9 37 -1 24 3 41 7 39 4 -3 8 0 8 5 0 6 -4 11
-8 11 -5 0 -9 7 -9 15 0 8 4 12 9 9 4 -3 8 0 8 5 0 6 -5 11 -11 11 -5 0 -7 5
-4 10 4 6 11 7 17 4 6 -4 6 2 -1 15 -10 18 -9 20 5 14 13 -5 15 -3 9 8 -6 11
-5 12 5 2 10 -9 18 -8 38 7 29 23 29 23 38 8z m59 -78 c-3 -5 -11 -10 -16 -10
-6 0 -7 5 -4 10 3 6 11 10 16 10 6 0 7 -4 4 -10z m-288 -25 c0 -8 -4 -12 -9
-9 -5 3 -6 10 -3 15 9 13 12 11 12 -6z"/>
<path d="M3994 954 c4 -9 -3 -10 -26 -4 -26 8 -28 7 -17 -6 10 -13 8 -13 -15
-5 -21 9 -26 8 -26 -5 0 -8 -4 -12 -10 -9 -5 3 -20 -1 -32 -9 -12 -9 -18 -16
-12 -16 5 0 15 5 22 12 9 9 9 5 0 -14 -9 -18 -15 -23 -21 -15 -4 7 -6 -7 -5
-31 2 -38 4 -41 22 -35 12 3 26 6 33 6 6 0 9 6 6 14 -6 15 26 7 40 -11 5 -7 6
-3 3 8 -5 13 -2 17 9 13 8 -4 17 -2 21 4 4 6 13 4 24 -6 14 -12 20 -13 26 -4
5 8 3 10 -6 4 -9 -5 -11 -4 -6 3 10 17 26 15 26 -3 0 -9 9 -15 25 -15 14 0 25
-5 25 -11 0 -5 4 -8 9 -4 5 3 13 0 17 -6 4 -8 3 -9 -4 -5 -7 4 -12 2 -12 -3 0
-6 6 -11 13 -11 8 0 7 -4 -3 -10 -10 -6 -11 -10 -2 -10 6 0 12 -6 12 -14 0 -8
-6 -17 -12 -19 -10 -4 -10 -6 0 -6 6 -1 12 -6 12 -12 0 -6 -7 -9 -15 -5 -13 5
-14 2 -4 -15 9 -17 8 -20 -2 -14 -8 6 -11 4 -7 -7 5 -11 0 -14 -18 -12 -13 1
-22 -2 -18 -7 3 -5 11 -6 17 -2 7 4 6 -1 -2 -11 -8 -9 -21 -14 -29 -11 -12 5
-13 3 -2 -10 7 -9 9 -15 4 -14 -5 1 -18 1 -29 0 -17 -1 -18 -3 -5 -11 13 -8
12 -10 -5 -11 -11 -1 -24 -1 -28 0 -5 1 -5 -4 -1 -10 5 -9 2 -10 -10 -6 -13 5
-19 1 -23 -13 -3 -11 -10 -20 -15 -20 -5 0 -6 5 -2 12 4 7 3 8 -5 4 -9 -6 -9
-11 -1 -21 8 -10 8 -15 -1 -21 -7 -4 -9 -3 -6 3 4 6 -2 13 -14 16 -17 5 -18 3
-8 -9 10 -12 9 -13 -6 -8 -13 5 -16 4 -11 -4 4 -7 1 -12 -9 -12 -10 0 -13 5
-9 13 5 8 2 8 -9 -2 -19 -15 -23 -26 -5 -15 7 5 8 3 4 -5 -5 -7 -15 -10 -23
-6 -13 4 -14 3 -4 -9 9 -11 9 -16 0 -22 -8 -4 -9 -3 -5 4 4 7 3 12 -3 12 -5 0
-9 -9 -8 -20 1 -14 6 -19 16 -15 12 5 11 2 -2 -13 -9 -10 -17 -23 -17 -28 0
-5 4 -3 9 5 7 11 12 10 28 -6 15 -15 25 -18 37 -11 10 6 16 5 16 -2 0 -6 5 -8
10 -5 6 4 8 10 6 14 -3 3 4 7 14 7 13 0 16 -4 9 -12 -11 -13 14 -13 45 1 13 6
21 5 24 -3 2 -7 8 -12 13 -12 6 0 8 4 5 9 -3 5 5 11 19 13 20 4 23 3 14 -8
-14 -17 -5 -18 22 -4 13 8 19 7 19 0 0 -8 6 -8 20 0 14 8 20 8 20 0 0 -8 6 -8
20 0 14 8 20 8 20 0 0 -8 6 -8 20 0 14 8 20 8 20 0 0 -6 5 -8 10 -5 6 4 8 10
5 15 -3 4 5 6 17 3 19 -4 20 -3 8 7 -12 10 -11 11 8 7 19 -4 21 -3 12 8 -7 8
-8 20 -4 27 12 19 14 39 3 32 -5 -3 -6 -10 -3 -16 4 -7 2 -8 -4 -4 -15 9 -15
11 4 30 14 15 13 16 -8 12 -13 -2 -29 1 -36 7 -9 7 -11 6 -7 -4 4 -11 -6 -14
-44 -14 -27 0 -47 3 -44 8 5 9 -6 8 -32 -3 -13 -5 -26 -3 -37 7 -11 10 -18 11
-23 4 -10 -17 -62 -13 -69 5 -5 14 -4 15 9 4 12 -10 20 -9 42 6 16 10 32 17
37 16 5 -2 6 4 3 12 -6 15 9 16 31 2 12 -7 12 -4 1 15 -11 21 -11 23 3 11 13
-10 17 -10 21 3 4 9 13 12 23 8 11 -4 15 -2 11 4 -4 6 0 16 8 23 13 11 14 10
9 -5 -7 -16 -5 -16 14 1 24 20 29 29 10 18 -9 -5 -9 -2 1 9 7 9 19 17 27 17 7
0 16 5 20 11 4 8 -1 9 -17 5 l-24 -7 24 14 c18 11 21 16 10 21 -8 4 -6 5 6 3
16 -3 20 2 20 22 1 14 -4 29 -9 33 -6 4 -3 15 8 27 17 19 18 21 2 27 -11 4
-16 14 -13 25 3 10 -1 20 -9 23 -8 3 -14 14 -14 24 0 10 -8 26 -18 35 -21 19
-37 23 -27 6 4 -6 -2 -5 -13 2 -12 7 -18 18 -15 24 4 5 3 7 -2 3 -4 -4 -14 -3
-22 4 -11 9 -12 7 -7 -7 5 -13 4 -16 -4 -11 -7 4 -12 14 -12 22 0 14 -2 13
-16 0 -17 -18 -28 -21 -19 -6 9 14 -9 12 -24 -2 -10 -11 -11 -9 -6 7 6 19 6
19 -8 3 -17 -21 -28 -23 -21 -5 3 8 -2 14 -11 14 -9 0 -14 -6 -11 -13z m225
-67 c0 -9 -2 -8 -6 1 -2 6 -10 9 -15 6 -7 -4 -8 -2 -4 5 9 13 26 5 25 -12z
m-184 -346 c3 -5 2 -12 -3 -15 -5 -3 -9 1 -9 9 0 17 3 19 12 6z m-25 -21 c0
-5 -2 -10 -4 -10 -3 0 -8 5 -11 10 -3 6 -1 10 4 10 6 0 11 -4 11 -10z m47 -42
c-3 -8 -6 -5 -6 6 -1 11 2 17 5 13 3 -3 4 -12 1 -19z"/>
<path d="M4621 964 c-1 -7 -8 -15 -17 -18 -8 -3 -12 -2 -9 4 3 6 2 10 -4 10
-5 0 -13 -4 -16 -10 -3 -5 -12 -10 -18 -10 -7 0 -6 4 3 11 12 9 12 10 -3 5
-10 -3 -23 -6 -28 -6 -6 0 -8 -4 -5 -8 3 -5 -1 -9 -9 -9 -8 0 -12 3 -10 7 2 3
-6 6 -18 7 -12 0 -16 -1 -9 -4 6 -3 12 -9 12 -14 0 -6 -4 -8 -9 -5 -5 4 -12 0
-14 -6 -4 -10 -6 -10 -6 1 -1 8 -7 6 -18 -8 -10 -12 -28 -23 -41 -24 -22 -1
-22 -2 -5 -15 17 -14 17 -14 -4 -9 -15 3 -23 1 -23 -8 0 -8 -10 -21 -22 -30
-17 -12 -18 -15 -6 -13 9 2 16 -1 15 -7 -1 -5 -5 -9 -9 -8 -5 2 -8 0 -9 -5 -3
-32 -11 -58 -19 -60 -6 -2 -7 -8 -4 -13 3 -6 11 -6 18 -2 7 4 3 0 -7 -9 -17
-16 -15 -22 6 -19 4 0 7 -3 7 -9 0 -5 -8 -10 -17 -10 -17 -1 -17 -1 0 -11 9
-5 17 -15 17 -21 0 -6 -7 -5 -17 3 -17 13 -17 13 0 -7 9 -11 14 -24 11 -27 -4
-4 1 -10 11 -14 18 -6 18 -7 -1 -14 -18 -7 -18 -8 2 -8 12 -1 25 -8 28 -17 5
-14 4 -15 -9 -4 -13 11 -14 10 -9 -4 3 -9 12 -16 20 -16 8 0 14 -7 14 -15 0
-14 12 -20 33 -16 5 1 6 -3 3 -8 -3 -5 -3 -17 0 -26 5 -13 8 -14 15 -3 7 10 9
8 10 -7 1 -11 1 -23 1 -26 -1 -3 5 -6 13 -6 8 0 12 5 9 11 -3 6 1 3 9 -6 16
-21 32 -24 21 -5 -4 6 2 3 14 -7 24 -20 31 -36 9 -17 -10 8 -14 7 -14 -4 0 -8
3 -13 5 -10 3 3 17 -2 31 -11 14 -9 20 -11 14 -3 -21 22 -15 34 7 14 11 -10
20 -15 20 -10 0 4 6 3 13 -4 10 -8 17 -7 25 1 7 7 12 8 12 4 0 -5 7 -3 15 4 8
7 21 10 28 7 8 -3 14 1 14 9 0 8 -5 14 -10 14 -6 0 -7 3 -4 6 4 4 13 1 21 -5
12 -10 17 -7 30 16 8 15 15 22 16 16 0 -23 20 -14 20 10 0 18 2 19 10 7 5 -8
10 -12 11 -7 8 40 21 58 34 47 11 -9 12 -7 8 8 -2 11 1 23 8 27 8 5 10 4 5 -3
-11 -18 0 -14 15 5 10 11 10 14 2 9 -8 -4 -13 -2 -13 8 0 8 5 18 12 22 7 4 8
3 4 -4 -10 -17 -1 -15 13 2 9 11 9 16 0 22 -8 5 -9 3 -4 -6 6 -9 4 -11 -5 -5
-9 5 -5 13 15 29 25 20 26 23 11 35 -12 10 -14 17 -5 27 6 8 8 14 5 14 -4 0
-1 10 5 23 11 20 11 21 -4 8 -21 -17 -22 -8 -1 13 14 15 14 16 -1 16 -9 0 -13
5 -9 11 3 6 0 15 -7 20 -10 6 -10 9 -2 9 14 0 -6 28 -44 63 -19 17 -20 23 -11
36 7 9 8 13 3 8 -4 -4 -20 3 -34 15 -14 13 -20 16 -13 8 6 -8 12 -18 12 -24 0
-5 -8 1 -19 12 -10 12 -24 22 -30 22 -7 0 -9 5 -5 12 5 7 3 8 -7 3 -20 -13
-49 -13 -56 -2 -4 6 -1 7 8 2 12 -8 12 -6 0 8 -15 19 -26 23 -15 5 5 -8 2 -9
-9 -5 -10 4 -17 1 -18 -6 0 -7 -4 -3 -9 8 -5 11 -9 15 -9 9z m-16 -113 c-3 -5
-1 -12 5 -16 5 -3 10 -1 10 4 0 15 30 14 31 -1 0 -10 2 -10 6 0 2 6 9 10 13 7
5 -3 7 -11 4 -19 -3 -7 2 -13 10 -13 8 0 13 4 10 9 -3 4 -1 8 3 8 5 0 13 -10
18 -22 6 -13 16 -22 23 -21 7 2 9 -4 5 -14 -4 -9 1 -21 12 -29 18 -14 18 -14
-1 -15 -10 0 -13 -3 -6 -6 6 -2 10 -9 6 -14 -3 -5 -1 -9 4 -9 10 0 9 -36 -1
-46 -12 -12 -8 -36 5 -28 7 4 8 3 4 -4 -4 -7 -15 -12 -24 -13 -11 0 -12 -3 -4
-6 19 -7 14 -29 -10 -47 -13 -9 -17 -14 -10 -11 16 8 15 -5 -2 -27 -7 -10 -17
-14 -22 -10 -4 4 -3 0 4 -10 10 -12 10 -18 1 -24 -8 -5 -10 -3 -5 7 4 8 1 6
-7 -3 -8 -10 -16 -15 -19 -12 -3 3 -15 -6 -26 -20 -23 -30 -34 -34 -25 -8 5
14 3 15 -8 5 -17 -17 -32 -17 -23 0 5 7 1 7 -12 -3 -10 -8 -16 -11 -12 -6 4 5
-4 17 -17 28 -14 11 -23 23 -20 28 3 5 1 11 -5 15 -6 4 -7 11 -4 17 4 6 2 8
-3 5 -6 -4 -17 1 -24 10 -8 9 -9 14 -3 10 6 -3 11 0 11 7 0 9 -7 12 -16 8 -9
-3 -13 -1 -8 3 4 5 0 17 -10 27 -15 17 -15 18 1 18 9 0 14 -4 11 -10 -3 -5 -1
-10 4 -10 16 0 13 16 -4 30 -13 11 -13 14 2 26 16 12 16 12 -7 8 -20 -5 -22
-3 -10 5 13 10 13 11 0 11 -13 0 -13 1 0 10 10 7 11 10 2 10 -8 0 -10 9 -6 28
3 15 6 32 6 39 1 7 6 11 12 10 6 -1 10 6 10 16 -1 9 2 17 7 17 4 0 20 11 35
25 27 25 43 28 56 10 4 -6 8 -2 8 8 0 9 5 17 11 17 5 0 8 -4 4 -9z m295 -215
c0 -11 -19 -15 -25 -6 -3 5 1 10 9 10 9 0 16 -2 16 -4z m-385 -136 c3 -5 1
-10 -4 -10 -6 0 -11 5 -11 10 0 6 2 10 4 10 3 0 8 -4 11 -10z m131 -112 c4 -7
4 -10 -1 -6 -4 4 -15 2 -24 -5 -14 -11 -14 -10 -2 6 16 20 18 21 27 5z"/>
<path d="M4539 823 c-13 -16 -12 -17 4 -4 9 7 17 15 17 17 0 8 -8 3 -21 -13z"/>
<path d="M4590 740 c0 -5 5 -10 10 -10 6 0 10 -5 10 -11 0 -6 -6 -9 -12 -6 -7
2 -19 -3 -26 -12 -8 -9 -11 -10 -7 -3 11 22 -2 13 -20 -14 -9 -15 -11 -23 -4
-19 9 6 11 2 7 -13 -5 -19 -4 -20 15 -10 19 10 20 9 9 -4 -10 -13 -10 -18 -1
-24 8 -4 9 -3 5 4 -4 7 -2 12 3 12 6 0 11 -6 11 -13 0 -8 7 -14 15 -14 8 0 15
5 15 10 0 5 9 7 21 4 17 -4 18 -3 8 9 -10 12 -9 13 5 8 11 -4 16 -1 16 11 0
10 5 14 13 10 6 -4 4 0 -6 8 -14 11 -15 16 -5 20 11 4 11 6 0 6 -8 1 -10 6 -6
14 5 8 2 7 -9 -2 -15 -12 -17 -12 -11 4 5 13 4 16 -4 11 -7 -4 -12 -3 -12 1 0
5 -9 14 -20 21 -12 7 -20 8 -20 2z"/>
<path d="M4463 715 c0 -8 4 -12 9 -9 5 3 6 10 3 15 -9 13 -12 11 -12 -6z"/>
<path d="M4740 681 c0 -6 4 -13 10 -16 6 -3 7 1 4 9 -7 18 -14 21 -14 7z"/>
<path d="M5092 959 c6 -16 -27 -20 -49 -6 -6 4 -15 2 -19 -4 -5 -8 -3 -9 6 -4
9 5 11 4 6 -3 -4 -7 -14 -12 -22 -12 -9 0 -12 5 -8 12 4 7 3 8 -4 4 -7 -4 -12
-13 -12 -21 0 -8 -5 -17 -12 -21 -7 -4 -8 -3 -4 4 5 8 2 10 -8 6 -18 -7 -21
-20 -6 -29 8 -5 7 -11 0 -20 -7 -8 -9 -19 -5 -24 4 -7 -1 -9 -12 -5 -15 5 -16
4 -3 -5 20 -14 43 -14 34 1 -4 6 -3 8 4 4 6 -3 14 -2 17 4 5 8 11 7 21 -1 13
-11 19 -5 14 16 -1 6 4 5 11 -2 7 -7 19 -9 34 -3 14 5 27 4 34 -3 6 -6 11 -7
11 -3 0 5 8 2 17 -5 15 -12 16 -12 9 5 -7 19 -6 19 14 1 14 -13 20 -14 20 -5
0 7 3 10 6 7 4 -4 1 -14 -7 -24 -9 -11 -10 -14 -1 -9 7 4 12 2 12 -4 0 -6 4
-9 8 -6 4 2 14 -4 21 -16 7 -11 8 -17 2 -13 -6 3 -11 -1 -11 -9 0 -9 6 -16 13
-16 8 0 8 -3 -2 -9 -8 -5 -11 -16 -8 -25 3 -8 1 -18 -5 -22 -6 -4 -8 -3 -4 4
3 6 2 13 -3 17 -6 3 -8 -6 -5 -21 4 -21 2 -25 -11 -20 -13 5 -14 2 -4 -17 6
-12 8 -19 4 -15 -4 4 -14 0 -22 -10 -8 -9 -12 -12 -9 -6 3 6 -1 11 -8 11 -8 0
-12 -6 -9 -14 3 -8 0 -11 -9 -8 -8 3 -21 -2 -29 -12 -13 -17 -13 -17 6 -3 18
14 19 13 8 -1 -7 -9 -10 -18 -7 -22 3 -3 -4 -3 -17 0 -14 4 -20 2 -15 -5 3 -6
2 -13 -3 -16 -5 -4 -13 -1 -17 5 -5 8 -3 9 6 4 9 -5 11 -4 6 4 -4 6 -12 9 -17
5 -5 -3 -6 -10 -3 -16 5 -8 1 -9 -11 -4 -15 5 -16 4 -5 -9 11 -13 10 -14 -4
-9 -13 5 -15 2 -9 -12 7 -18 6 -18 -11 -1 -22 21 -27 22 -19 1 4 -11 1 -15
-13 -12 -11 2 -18 -2 -16 -9 1 -7 -7 -13 -19 -13 -11 0 -17 -4 -14 -10 3 -5 1
-10 -4 -10 -6 0 -11 -5 -11 -11 0 -5 4 -8 8 -5 5 3 8 -7 7 -22 -2 -38 4 -52
22 -45 8 3 18 0 23 -7 6 -9 14 -8 36 6 26 17 28 17 15 1 -15 -19 -9 -22 20 -7
13 8 19 7 19 0 0 -8 6 -8 20 0 14 8 20 8 20 0 0 -8 6 -8 20 0 14 8 20 8 20 0
0 -8 6 -8 20 0 14 8 20 8 20 0 0 -6 5 -8 10 -5 6 4 8 10 6 14 -3 3 4 7 14 7
12 0 16 -4 10 -11 -6 -7 -2 -11 10 -12 11 -1 22 2 25 8 4 5 14 9 23 9 15 0 15
-2 2 -10 -8 -5 -10 -10 -4 -10 5 0 15 5 22 12 9 9 12 9 12 0 0 -9 5 -10 19 -3
10 6 21 7 25 3 4 -3 4 1 0 11 -5 13 -2 16 12 11 17 -5 17 -5 2 6 -16 10 -16
13 2 45 13 24 16 36 8 41 -6 4 -8 3 -4 -4 10 -16 -14 -26 -27 -12 -9 10 -9 11
3 5 13 -8 13 -6 2 8 -11 13 -17 14 -32 5 -10 -7 -16 -16 -13 -22 3 -5 1 -6 -6
-2 -6 4 -9 12 -6 17 8 12 -2 11 -27 -2 -15 -8 -19 -8 -14 0 8 13 0 13 -29 2
-13 -5 -29 -2 -45 8 l-25 15 20 -24 c11 -14 13 -19 5 -12 -19 16 -63 16 -55 0
4 -7 0 -5 -8 5 -14 17 -16 17 -25 1 -6 -11 -11 -13 -16 -5 -4 6 -2 11 3 11 6
0 11 5 11 11 0 5 -6 7 -12 3 -9 -5 -9 -2 1 9 14 18 26 23 17 8 -3 -5 1 -12 10
-15 23 -9 31 -7 15 3 -22 14 3 40 34 36 14 -1 33 4 42 12 10 8 12 11 4 7 -10
-5 -12 -3 -7 5 6 9 11 9 22 0 12 -9 13 -9 9 2 -4 10 2 15 15 16 19 2 82 43 65
43 -5 0 -16 -7 -26 -16 -13 -12 -19 -12 -25 -3 -4 7 -3 10 3 6 13 -8 36 17 26
27 -4 4 0 4 10 0 12 -4 17 -1 17 11 0 9 5 13 10 10 6 -3 10 1 10 10 0 9 4 14
8 11 5 -3 9 1 9 9 0 8 -5 11 -11 8 -6 -4 -5 1 3 10 7 9 11 26 8 37 -3 10 0 18
5 17 6 -1 13 4 16 12 2 8 0 11 -5 8 -5 -3 -14 3 -21 13 -9 14 -9 21 0 26 7 5
8 3 3 -6 -6 -9 -4 -11 5 -5 9 6 11 4 5 -5 -5 -9 -4 -11 3 -6 9 5 8 12 -1 26
-6 11 -15 20 -19 20 -5 0 -8 5 -8 11 0 5 6 7 13 3 8 -5 8 -2 -2 9 -16 20 -25
22 -16 5 4 -7 0 -5 -8 4 -8 10 -18 14 -23 10 -4 -4 -2 1 5 11 12 15 12 17 -4
10 -14 -5 -17 -3 -12 10 3 9 2 17 -3 17 -6 0 -10 -6 -10 -12 0 -8 -7 -5 -15 6
-10 13 -15 15 -15 6 0 -9 -4 -8 -14 5 -17 24 -47 29 -39 7 5 -11 3 -13 -7 -7
-8 5 -26 9 -40 9 -14 1 -31 5 -39 10 -11 7 -13 5 -9 -5z m122 -15 c3 -8 2 -12
-4 -9 -6 3 -10 10 -10 16 0 14 7 11 14 -7z"/>
<path d="M5570 961 c0 -5 -11 -8 -25 -6 -14 1 -28 -2 -32 -8 -3 -6 -1 -7 5 -3
7 4 12 2 12 -5 0 -7 -10 -9 -25 -7 -18 4 -26 0 -32 -16 -4 -12 -6 -24 -5 -29
1 -4 -1 -6 -5 -6 -5 1 -15 1 -23 0 -13 -1 -13 -2 0 -11 13 -9 13 -11 0 -20
-10 -6 -11 -10 -2 -10 6 0 12 -8 13 -17 0 -11 3 -13 6 -5 2 6 20 12 39 12 27
0 32 3 28 18 -5 14 -4 14 6 -2 10 -15 14 -16 21 -5 8 12 10 12 18 0 7 -11 9
-11 13 0 4 11 9 12 26 2 16 -9 23 -10 28 -1 5 7 3 8 -6 3 -9 -5 -11 -4 -6 3
10 16 26 15 26 -2 0 -7 13 -19 30 -26 16 -7 35 -20 42 -29 12 -15 11 -15 -6
-1 -18 14 -19 14 -7 -8 6 -12 9 -27 5 -33 -4 -6 0 -15 7 -20 11 -7 10 -9 -5
-9 -14 0 -16 -3 -7 -14 14 -17 -11 -42 -31 -30 -10 6 -10 5 0 -8 11 -14 10
-18 -7 -28 -12 -6 -21 -8 -21 -5 0 4 -7 0 -15 -9 -8 -8 -15 -21 -15 -28 0 -11
-2 -11 -9 0 -6 10 -10 8 -14 -9 -5 -18 -9 -20 -20 -11 -12 10 -14 7 -11 -15 2
-27 2 -27 -12 -9 -8 11 -14 14 -14 7 0 -7 -4 -9 -10 -6 -5 3 -8 0 -5 -7 3 -7
-5 -19 -17 -27 -18 -10 -20 -10 -10 0 6 7 12 18 12 23 0 6 -8 -1 -18 -17 -10
-15 -22 -24 -25 -20 -4 3 -7 1 -7 -5 0 -7 -7 -12 -15 -12 -8 0 -15 -4 -15 -10
0 -5 0 -12 0 -15 0 -3 -6 -21 -14 -40 -11 -25 -11 -34 -3 -32 7 1 11 -3 10 -9
-1 -6 5 -11 13 -11 11 0 11 4 -3 19 -16 18 -16 18 12 4 28 -15 73 -15 97 0 11
6 11 5 0 -8 -10 -13 -9 -15 5 -13 10 1 27 5 37 10 13 6 21 5 24 -3 2 -7 8 -12
13 -12 6 0 8 4 5 9 -3 5 5 11 19 13 20 4 23 3 14 -8 -14 -17 -5 -18 22 -4 13
8 19 7 19 0 0 -8 6 -8 20 0 14 8 20 8 20 0 0 -7 6 -8 19 0 26 13 34 13 24 -2
-4 -7 5 -5 20 5 20 13 25 14 21 3 -5 -13 -2 -13 19 -3 14 6 23 15 20 19 -2 5
-9 6 -14 3 -15 -10 -10 2 8 16 14 12 16 12 8 0 -6 -10 -4 -12 4 -7 7 5 10 11
7 14 -3 3 0 12 7 20 10 13 9 14 -2 7 -11 -6 -13 -2 -8 21 4 23 3 26 -6 13 -11
-14 -14 -14 -31 3 -24 22 -34 15 -15 -9 12 -16 12 -17 -1 -7 -8 6 -23 10 -33
9 -9 -2 -15 1 -11 6 7 12 -3 11 -28 -2 -16 -8 -19 -8 -13 1 5 9 2 10 -13 6
-12 -4 -32 -2 -44 4 -21 10 -22 10 -5 -3 12 -10 14 -17 8 -22 -6 -3 -11 -1
-11 6 0 6 -8 9 -20 6 -22 -6 -28 8 -7 17 6 2 2 4 -10 2 -12 -1 -26 -6 -30 -11
-5 -4 -2 -5 4 -1 9 5 11 2 7 -8 -5 -12 -9 -13 -19 -3 -7 6 -10 18 -7 26 4 10
1 12 -8 6 -8 -5 -11 -4 -7 3 4 5 16 8 27 5 11 -3 20 0 20 6 0 6 5 11 11 11 5
0 7 -6 3 -12 -5 -9 -3 -9 9 1 9 7 15 17 12 21 -3 5 6 7 19 6 14 -2 31 5 40 15
9 11 25 19 35 19 22 0 52 34 71 79 7 17 16 28 21 25 5 -3 9 -1 9 5 0 5 3 17 7
27 5 13 3 15 -8 9 -10 -7 -10 -3 3 16 9 14 13 31 9 38 -5 7 -7 23 -5 36 2 18
-2 22 -14 17 -15 -5 -16 -4 -2 13 9 11 10 16 3 11 -12 -7 -19 12 -14 38 1 5
-4 4 -13 -3 -10 -8 -16 -9 -21 -1 -3 6 -11 7 -17 4 -7 -4 -8 -2 -4 5 4 6 13 9
19 5 7 -3 4 1 -6 9 -10 9 -28 12 -40 9 -20 -5 -21 -4 -8 11 12 15 12 17 -3 11
-9 -3 -24 0 -34 7 -15 13 -16 12 -4 -3 10 -12 10 -18 1 -24 -8 -4 -9 -3 -5 4
4 7 1 12 -8 12 -8 0 -17 6 -19 13 -4 9 -6 9 -6 -1 -1 -10 -6 -10 -23 -1 -20
10 -21 10 -11 -2 9 -12 6 -14 -22 -14 -22 0 -31 4 -28 13 3 6 2 12 -1 12 -3 0
-6 -4 -6 -9z m220 -335 c0 -2 -6 -9 -14 -15 -11 -9 -16 -9 -22 0 -4 8 -3 9 4
5 7 -4 12 -2 12 3 0 6 5 11 10 11 6 0 10 -2 10 -4z m-226 -132 c3 -8 2 -12 -4
-9 -6 3 -10 10 -10 16 0 14 7 11 14 -7z"/>
<path d="M4420 910 c-9 -6 -10 -10 -3 -10 6 0 15 5 18 10 8 12 4 12 -15 0z"/>
<path d="M4827 869 c7 -7 15 -10 18 -7 3 3 -2 9 -12 12 -14 6 -15 5 -6 -5z"/>
<path d="M4940 869 c0 -5 -5 -7 -12 -3 -7 4 -8 3 -4 -5 6 -9 11 -9 22 0 17 14
18 19 4 19 -5 0 -10 -5 -10 -11z"/>
<path d="M1918 850 c6 -8 12 -17 12 -21 0 -10 -49 -2 -65 11 -12 10 -16 9 -21
-4 -5 -14 -9 -14 -22 -4 -13 11 -14 11 -7 -1 6 -11 4 -13 -7 -8 -9 3 -25 -3
-36 -13 -14 -14 -22 -16 -25 -7 -6 19 -37 -11 -38 -37 0 -11 -3 -15 -6 -8 -2
6 -9 10 -13 7 -5 -3 -6 -13 -3 -22 5 -12 3 -14 -7 -8 -10 6 -12 4 -7 -8 3 -10
2 -18 -3 -18 -6 -1 -14 -2 -19 -3 -5 0 -13 -5 -18 -10 -4 -5 -3 -7 2 -3 6 3
17 2 23 -2 10 -6 9 -11 -4 -22 -16 -12 -17 -12 -9 1 4 8 4 12 0 7 -12 -10 -15
-38 -4 -31 5 3 9 1 9 -5 0 -5 -6 -12 -12 -15 -10 -5 -10 -7 0 -12 10 -5 10 -9
1 -20 -9 -11 -8 -14 2 -14 11 0 11 -2 -1 -10 -13 -9 -13 -10 0 -10 13 0 13 -1
0 -10 -8 -5 -10 -10 -5 -10 6 0 11 -9 11 -19 0 -11 -4 -17 -8 -15 -4 3 -8 1
-8 -5 0 -5 6 -12 13 -14 9 -4 8 -8 -3 -17 -13 -10 -13 -11 2 -7 24 8 30 -4 10
-19 -15 -12 -15 -13 6 -9 21 4 22 2 10 -12 -11 -15 -10 -16 10 -10 13 3 21 3
18 0 -3 -3 2 -12 12 -20 9 -8 12 -12 5 -9 -6 4 -14 3 -17 -2 -2 -4 6 -8 19 -8
13 0 22 3 19 7 -6 11 30 5 38 -6 5 -6 12 -5 20 4 11 11 11 13 -1 6 -10 -6 -12
-4 -7 4 6 9 11 9 21 1 16 -14 34 5 35 38 0 4 5 0 10 -8 7 -11 10 -11 10 -2 0
7 4 11 8 8 5 -3 9 1 9 9 0 8 -5 11 -10 8 -6 -4 -7 -1 -3 6 5 7 14 10 21 7 7
-2 12 3 11 12 0 9 5 17 12 17 14 0 17 13 6 23 -4 4 -4 1 0 -5 5 -9 2 -11 -10
-6 -15 5 -15 7 0 15 9 5 13 14 10 20 -4 7 -2 8 4 4 7 -4 12 -2 12 3 0 6 5 11
11 11 5 0 8 -4 4 -9 -3 -5 -1 -12 4 -15 5 -3 7 -16 3 -28 -4 -18 -2 -20 14
-15 16 6 17 5 4 -5 -8 -7 -17 -24 -19 -38 -1 -14 -7 -28 -12 -31 -5 -3 2 -11
16 -17 15 -7 31 -9 37 -6 6 4 14 1 18 -6 5 -9 18 -5 49 15 22 15 41 30 41 32
0 2 -4 2 -9 -2 -5 -3 -12 -1 -16 5 -3 5 0 10 7 10 8 0 9 3 3 8 -13 9 -13 27
-1 39 5 4 6 3 2 -4 -3 -6 -2 -14 3 -17 5 -4 8 1 7 10 -1 8 -9 20 -17 25 -8 5
-9 9 -3 9 7 0 14 7 17 14 4 10 1 13 -8 10 -15 -6 -15 20 0 33 4 4 5 2 0 -6 -5
-9 -4 -12 3 -7 6 4 9 13 6 21 -4 8 -11 12 -18 8 -6 -4 -5 1 3 10 7 10 9 17 3
17 -12 0 -10 26 3 37 4 4 5 3 1 -4 -3 -6 -2 -14 3 -17 5 -4 8 1 7 10 -1 8 -8
19 -15 24 -11 6 -11 9 0 13 12 4 11 7 -1 16 -13 10 -13 11 0 11 13 0 13 1 0
10 -12 8 -12 10 -1 10 11 0 11 3 0 17 -12 15 -12 16 5 10 16 -6 17 -5 6 8 -7
8 -9 15 -4 15 5 0 2 5 -6 10 -8 5 -10 10 -4 10 6 0 11 6 11 14 0 8 -6 12 -15
8 -10 -3 -13 -1 -8 6 4 7 2 12 -4 12 -6 0 -8 5 -4 12 4 7 3 8 -5 4 -6 -4 -8
-13 -5 -19 4 -7 4 -9 -1 -5 -4 4 -15 2 -24 -5 -14 -10 -14 -10 -3 5 10 12 10
18 1 24 -8 5 -9 3 -4 -6 6 -10 3 -12 -12 -8 -12 3 -27 2 -34 -3 -9 -5 -23 0
-39 14 -14 12 -19 15 -12 7z m-61 -32 c-3 -8 -6 -5 -6 6 -1 11 2 17 5 13 3 -3
4 -12 1 -19z m-117 -28 c0 -5 -5 -10 -11 -10 -5 0 -7 5 -4 10 3 6 8 10 11 10
2 0 4 -4 4 -10z m147 -49 c21 8 24 7 19 -6 -4 -11 -2 -14 7 -8 22 13 35 11 32
-6 -2 -9 -4 -20 -4 -24 -1 -5 -6 -5 -12 -1 -8 5 -9 2 -1 -12 8 -14 6 -21 -6
-32 -12 -10 -13 -11 -2 -6 12 6 13 4 3 -7 -7 -7 -13 -22 -13 -32 0 -11 -5 -17
-13 -14 -7 3 -13 -3 -13 -13 0 -10 3 -17 6 -15 4 2 7 -2 7 -9 0 -9 -7 -12 -15
-8 -11 4 -14 1 -9 -11 4 -11 -1 -18 -14 -22 -10 -4 -17 -11 -14 -16 4 -5 1 -9
-4 -9 -6 0 -11 5 -11 12 0 6 -7 3 -16 -8 -8 -10 -12 -13 -9 -6 4 8 -3 27 -15
44 -13 17 -18 28 -11 24 6 -4 11 -2 11 3 0 6 -8 11 -17 11 -15 0 -16 2 -3 10
20 12 23 73 3 66 -8 -4 -11 -1 -7 5 4 6 0 16 -7 21 -10 6 -7 7 10 3 15 -5 21
-3 17 3 -4 6 2 16 11 22 16 10 16 11 1 6 -10 -3 -20 0 -24 7 -4 7 -3 9 1 4 5
-4 17 1 28 10 11 10 17 13 14 6 -4 -6 -3 -14 2 -17 5 -3 11 4 15 16 4 17 8 20
17 11 8 -8 19 -9 36 -2z m-107 -121 c0 -5 -2 -10 -4 -10 -3 0 -8 5 -11 10 -3
6 -1 10 4 10 6 0 11 -4 11 -10z m14 -106 c5 -14 4 -15 -9 -4 -17 14 -19 20 -6
20 5 0 12 -7 15 -16z m181 -114 c3 -6 -1 -7 -9 -4 -18 7 -21 14 -7 14 6 0 13
-4 16 -10z"/>
<path d="M1950 839 c0 -5 5 -7 10 -4 6 3 10 8 10 11 0 2 -4 4 -10 4 -5 0 -10
-5 -10 -11z"/>
<path d="M3479 848 c-1 -2 -2 -14 -4 -28 -8 -69 -8 -97 0 -109 5 -9 4 -12 -1
-8 -5 3 -10 -3 -10 -13 0 -10 4 -16 8 -14 4 3 8 0 8 -5 0 -6 -5 -11 -10 -11
-7 0 -7 -6 0 -20 8 -15 8 -20 -2 -20 -8 0 -9 -3 -3 -8 13 -9 15 -42 3 -42 -6
0 -5 -6 2 -15 10 -12 10 -15 -1 -15 -11 0 -11 -2 1 -10 13 -9 13 -10 0 -11
-10 0 -8 -3 5 -9 18 -8 18 -9 2 -9 -14 -1 -16 -5 -7 -20 7 -14 6 -21 -3 -24
-9 -4 -9 -6 0 -6 9 -1 10 -8 3 -27 -6 -14 -6 -23 -1 -20 5 3 14 -1 21 -9 11
-13 10 -14 -6 -9 -15 5 -16 4 -4 -5 9 -6 18 -7 24 -1 14 14 28 12 20 -2 -5 -9
-2 -9 9 1 14 11 17 11 17 0 0 -10 3 -10 12 -1 15 15 42 16 32 0 -4 -7 -3 -8 4
-4 6 4 9 13 5 21 -3 9 1 15 8 15 8 0 5 6 -7 15 -16 12 -16 14 -2 9 15 -5 17
-2 12 25 -4 18 -2 37 5 45 9 11 9 16 0 22 -8 5 -9 3 -4 -6 6 -9 4 -11 -5 -5
-10 6 -7 14 14 32 15 12 22 23 17 23 -6 0 -11 5 -11 11 0 5 6 7 13 3 7 -5 6 0
-3 11 -14 17 -13 18 2 13 12 -5 16 -1 14 17 -2 15 1 22 9 19 7 -3 22 7 34 23
19 23 24 25 33 13 8 -12 9 -12 4 2 -3 10 -1 20 4 23 6 4 10 1 10 -4 0 -6 5
-11 11 -11 5 0 8 4 5 9 -3 5 4 11 15 14 12 3 18 10 15 15 -3 6 -3 12 1 15 5 2
2 2 -5 0 -7 -1 -10 2 -7 7 3 6 3 15 -1 22 -4 7 -8 24 -8 39 -1 15 -5 31 -10
36 -6 5 -6 2 -1 -6 6 -11 4 -13 -8 -8 -9 3 -19 2 -23 -4 -3 -5 -14 -7 -25 -4
-11 4 -19 2 -19 -5 0 -6 5 -8 11 -4 7 4 10 1 7 -7 -3 -8 -14 -13 -26 -13 -12
1 -18 -4 -15 -11 2 -7 -1 -16 -7 -20 -9 -6 -9 -10 1 -17 10 -6 7 -7 -8 -3 -14
4 -23 2 -23 -4 0 -6 5 -11 11 -11 8 0 9 -4 0 -13 -6 -8 -8 -16 -5 -20 3 -3 -1
-4 -10 -3 -8 1 -19 5 -23 9 -11 11 -13 38 -2 31 5 -3 6 -10 3 -16 -5 -7 -2 -8
6 -3 9 6 11 4 5 -5 -5 -9 -4 -11 4 -6 12 8 1 30 -24 48 -6 5 -5 12 4 20 11 11
13 11 6 -1 -6 -10 -4 -12 4 -7 9 6 8 13 -5 27 -21 24 -31 25 -13 2 13 -16 12
-17 -3 -5 -11 9 -15 23 -12 40 3 19 2 23 -5 13 -5 -8 -14 -10 -21 -6 -8 5 -11
4 -7 -2 4 -6 0 -14 -9 -17 -8 -3 -13 -2 -10 3 3 5 -1 12 -10 15 -8 3 -12 2 -9
-3 3 -5 1 -12 -5 -16 -9 -6 -14 7 -11 28 1 6 -8 11 -10 5z m271 -28 c0 -5 -5
-10 -11 -10 -5 0 -7 5 -4 10 3 6 8 10 11 10 2 0 4 -4 4 -10z m-56 -139 c3 -5
-2 -15 -12 -22 -15 -12 -16 -12 -5 2 7 9 10 19 6 22 -3 4 -4 7 0 7 3 0 8 -4
11 -9z"/>
<path d="M4995 830 c-3 -5 -1 -10 4 -10 6 0 11 5 11 10 0 6 -2 10 -4 10 -3 0
-8 -4 -11 -10z"/>
<path d="M3450 799 c0 -5 5 -7 10 -4 6 3 10 8 10 11 0 2 -4 4 -10 4 -5 0 -10
-5 -10 -11z"/>
<path d="M2468 712 c-11 -15 -11 -15 2 -6 8 6 23 10 33 8 11 -1 16 0 13 4 -13
12 -36 10 -48 -6z"/>
<path d="M2910 559 c0 -5 5 -7 10 -4 6 3 10 8 10 11 0 2 -4 4 -10 4 -5 0 -10
-5 -10 -11z"/>
<path d="M3368 543 c7 -3 16 -2 19 1 4 3 -2 6 -13 5 -11 0 -14 -3 -6 -6z"/>
<path d="M5126 532 c-3 -5 1 -9 9 -9 8 0 12 4 9 9 -3 4 -7 8 -9 8 -2 0 -6 -4
-9 -8z"/>
<path d="M1930 520 c0 -5 5 -10 11 -10 5 0 7 5 4 10 -3 6 -8 10 -11 10 -2 0
-4 -4 -4 -10z"/>
<path d="M4395 480 c-3 -5 -1 -10 4 -10 6 0 11 5 11 10 0 6 -2 10 -4 10 -3 0
-8 -4 -11 -10z"/>
<path d="M1935 471 c-3 -5 -2 -12 3 -15 5 -3 9 1 9 9 0 17 -3 19 -12 6z"/>
<path d="M5396 462 c-3 -5 1 -9 9 -9 8 0 12 4 9 9 -3 4 -7 8 -9 8 -2 0 -6 -4
-9 -8z"/>
<path d="M4907 433 c-10 -9 -9 -23 1 -23 5 0 9 7 9 15 0 17 -1 18 -10 8z"/>
<path d="M2059 383 c-13 -15 -12 -15 9 -4 23 12 28 21 13 21 -5 0 -15 -7 -22
-17z"/>
<path d="M1299 363 c-13 -16 -12 -17 3 -5 13 10 17 10 21 0 2 -7 7 -10 11 -7
4 3 0 11 -7 18 -11 9 -17 7 -28 -6z"/>
</g>
</svg>
